<?xml version="1.0" encoding="utf-8"?>
<!-- Generator: Adobe Illustrator 15.0.2, SVG Export Plug-In . SVG Version: 6.00 Build 0)  -->
<!DOCTYPE svg PUBLIC "-//W3C//DTD SVG 1.1//EN" "http://www.w3.org/Graphics/SVG/1.1/DTD/svg11.dtd">
<svg version="1.1" id="Layer_1" xmlns="http://www.w3.org/2000/svg" xmlns:xlink="http://www.w3.org/1999/xlink" x="0px" y="0px"
	 width="113.76px" height="60.659px" viewBox="0 0 113.76 60.659" enable-background="new 0 0 113.76 60.659" xml:space="preserve">
<g>
	<path fill="#F26722" d="M71.801,50.992c-6.115,2.504-8.736,2.504-11.445,3.143c-9.15,1.732-38.789,3.893-54.37-13.021
		c-9.514-10.33-4.895-22.859,4.293-29.638C31.58-4.242,68.76-1.535,84.68,12.822c15.104,13.621,5.594,26.957-0.479,31.134
		C78.131,48.134,74.822,49.859,71.801,50.992z"/>
	<g>
		<path fill="#FFFFFF" d="M26.188,31.876c-0.648,0.324-1.566,0.576-2.413,0.576c-2.646,0-3.997-1.513-3.997-4.159
			c0-4.177,2.431-5.563,4.861-5.563c1.045,0,1.729,0.197,2.269,0.359l-0.27,2.521h-1.585l0.055-1.297
			c-0.181-0.072-0.378-0.107-0.666-0.107c-1.837,0-2.647,1.764-2.647,3.744c0,1.711,0.612,2.918,2.341,2.918
			c0.774,0,1.603-0.343,2.215-0.667L26.188,31.876z"/>
		<path fill="#FFFFFF" d="M27.645,18.426h3.403l-1.081,12.37h1.261l-0.126,1.477h-3.133l1.08-12.37h-1.53L27.645,18.426z"/>
		<path fill="#FFFFFF" d="M41.273,32.273H38.32c0.072-1.009,0.234-2.232,0.594-4.142H38.86c-0.559,1.962-1.53,4.249-3.745,4.249
			c-1.944,0-2.467-1.639-2.467-3.492c0-1.855,0.811-6.158,5.149-6.158c0.883,0,1.621,0.197,2.341,0.414h0.756
			c-0.09,0.342-0.252,1.53-0.306,2.25l-0.468,5.402h1.278L41.273,32.273z M35.512,30.688c1.729,0,3.312-4.861,3.312-6.284
			c-0.27-0.09-0.684-0.197-1.17-0.197c-2.467,0-3.098,3.187-3.098,4.734C34.557,29.968,34.845,30.688,35.512,30.688z"/>
		<path fill="#FFFFFF" d="M43.16,22.91h3.079c-0.107,1.225-0.252,2.467-0.396,3.619h0.035c0.486-1.945,1.297-3.799,3.224-3.799
			c0.342,0,0.684,0.035,0.864,0.072l-0.271,1.818c-0.144-0.037-0.342-0.09-0.54-0.09c-2.431,0-3.205,4.447-3.475,7.129l-0.055,0.613
			h-1.908c0.145-1.009,0.252-2.377,0.324-3.277l0.36-4.609h-1.369L43.16,22.91z"/>
		<path fill="#FFFFFF" d="M50.793,22.91h3.204l-0.684,7.887h1.242l-0.126,1.477h-3.133l0.702-7.887h-1.333L50.793,22.91z
			 M53.439,18.21c0.684,0,1.17,0.468,1.17,1.098c0,0.595-0.324,1.352-1.458,1.352c-0.883,0-1.206-0.613-1.206-1.117
			C51.945,18.642,52.557,18.21,53.439,18.21z"/>
		<path fill="#FFFFFF" d="M56.229,22.91h1.297l0.018-0.307c0.198-2.61,1.206-4.248,4.016-4.248c0.486,0,1.386,0.071,1.8,0.252
			l-0.126,1.404c-0.342-0.09-0.756-0.181-1.242-0.181c-1.584,0-2.269,0.667-2.448,2.233l-0.108,0.846h2.179l-0.126,1.477h-2.161
			l-0.576,7.076c-0.18,2.322-0.485,5.455-3.961,5.455c-0.594,0-1.062-0.125-1.62-0.252l0.144-1.549
			c0.414,0.091,0.864,0.217,1.225,0.217c1.639,0,2.143-1.332,2.358-4.141l0.522-6.807h-1.314L56.229,22.91z"/>
		<path fill="#FFFFFF" d="M61.61,35.316c0.18,0.053,0.594,0.107,0.9,0.107c1.422,0,2.124-1.152,2.665-2.322l0.324-0.703
			l-2.413-8.012h-1.188l0.126-1.477h2.755l1.494,5.636c0.145,0.558,0.288,1.404,0.343,1.872h0.036
			c0.035-0.197,0.09-0.414,0.161-0.611l2.107-5.42h-1.477l0.126-1.477h3.205l-0.126,1.404L68.146,30.4
			c-1.999,4.861-3.313,6.607-5.527,6.607c-0.324,0-0.738-0.053-1.152-0.18L61.61,35.316z"/>
	</g>
	<polygon fill="#F26722" points="80.182,43.761 112.424,58.668 86.769,36.48 	"/>
</g>
</svg>
