<?xml version="1.0" encoding="utf-8"?>
<!-- Generator: Adobe Illustrator 15.0.2, SVG Export Plug-In . SVG Version: 6.00 Build 0)  -->
<!DOCTYPE svg PUBLIC "-//W3C//DTD SVG 1.1//EN" "http://www.w3.org/Graphics/SVG/1.1/DTD/svg11.dtd">
<svg version="1.1" id="Layer_1" xmlns="http://www.w3.org/2000/svg" xmlns:xlink="http://www.w3.org/1999/xlink" x="0px" y="0px"
	 width="400px" height="225px" viewBox="0 0 400 225" enable-background="new 0 0 400 225" xml:space="preserve">
<g>
	<g>
		<g>
			<path fill="#FFFFFF" d="M43.011,107.729h0.628c0,0.753-0.126,1.424-0.837,1.424C42.215,108.567,43.221,108.524,43.011,107.729z
				 M44.017,108.944c0.586,0.209,0.921,0.586,0.837,1.466c-0.376,0.083-0.376,0.586-1.046,0.376
				C43.221,110.158,43.556,109.488,44.017,108.944z M56.915,135.537c-1.842,0.252-4.397,0-5.947-0.586
				c-7.706-3.057-6.198-16.082-2.01-22.908c-1.927-0.838-7.664-5.947-2.262-6.743c1.298,1.005,1.507,3.099,3.267,3.644
				c2.973-2.764,10.931-7.79,14.742-2.848c1.13,7.245-7.371,9.297-12.48,6.953c-6.827,3.308-7.329,20.52,1.633,21.273
				c2.764,0.252,6.743-1.591,8.167-2.847c1.214-1.089,2.428-3.77,3.056-5.319c0.377-0.922,1.424-5.57,2.891-5.318
				c1.005,0.168,1.256,2.848,0.796,4.69C67.553,130.471,62.402,134.783,56.915,135.537z M46.069,111.625
				c-0.251-0.503-0.67,0.544-1.215,0.418c-0.083-0.838,0.084-1.424,0.796-1.466c0.083,0.88,1.131,0.796,1.465,1.466
				c0.042,1.088-0.921,1.088-1.465,0.586C45.65,112.126,45.985,112,46.069,111.625z M48.75,123.477
				c0.502,0.544,0.041,1.256-0.419,1.424c-0.586,0-0.502-1.131-0.209-1.424H48.75z M48.75,127.371
				c-0.964,0.168-0.67-1.633-0.419-2.053C48.958,125.611,48.833,126.91,48.75,127.371z M48.121,122.053
				c0.377-0.377,0.503-0.043,1.005,0C49.335,122.89,47.911,122.89,48.121,122.053z M48.958,127.789c0.419,0,0.419,0.504,0.377,1.006
				c-0.628,0.084-0.88-0.168-0.796-0.797C48.75,127.998,48.917,127.957,48.958,127.789z M48.54,121.215v-0.796
				c0.712-0.083,1.173,0.042,1.005,0.796H48.54z M49.754,118.785c0.083,0.461-0.042,0.797-0.209,1.006
				c-0.628,0.125-0.628-0.419-0.586-1.006H49.754z M49.126,129.423h0.628c0.168,0.419,0.503,1.131,0.209,1.424
				C49.503,130.554,49,130.303,49.126,129.423z M50.592,116.523c0,0.838-0.042,1.634-0.838,1.634
				C49.335,117.613,49.586,116.314,50.592,116.523z M59.387,106.724c-3.184-0.418-6.952,1.675-7.581,3.895
				c1.592,0.544,3.686,2.01,6.324,1.634C61.983,111.666,63.784,107.269,59.387,106.724z M54.654,108.567
				c0.461,0.167,0.754,0.502,0.629,1.215C54.277,109.907,54.068,108.986,54.654,108.567z M55.492,111.205
				c0.754-1.465,3.601-2.219,4.9-1.423C59.931,111.415,57.418,111.708,55.492,111.205z M56.12,107.938
				c0.544,0.042,0.837,0.377,0.795,1.006c-0.25,0.209-0.544,0.293-1.004,0.209c0.083-0.46-0.377-0.419-0.209-1.005
				C55.911,108.19,56.037,108.106,56.12,107.938z M57.334,107.729c0.502-0.46,1.382,0,1.215,0.838
				C57.92,108.86,57.376,108.524,57.334,107.729z M68.768,129.004c0.042,0.67-0.754,1.047-1.215,0.629
				C67.679,129.088,68.307,128.543,68.768,129.004z M69.187,126.156c0.46-0.084,0.796,0,1.046,0.209
				c-0.041,0.504-0.335,0.755-0.837,0.797C69.228,126.91,69.145,126.617,69.187,126.156z M69.814,121.633
				c-0.126-0.167-0.209-0.334-0.209-0.586c0.251-0.209,0.545-0.293,1.005-0.209C70.778,121.508,70.275,121.592,69.814,121.633z
				 M70.024,124.104c0.586,0,0.586,1.467-0.209,1.215C69.354,124.9,69.772,124.398,70.024,124.104z M70.024,122.262
				c0.418-0.084,0.544,0.125,0.796,0.209c-0.125,0.502-0.168,1.047-0.796,1.006C69.731,123.225,69.731,122.513,70.024,122.262z"/>
			<path fill="#FFFFFF" d="M81.079,134.155c-6.24,1.843-8.92-3.644-8.626-9.8c1.339-3.393,2.931-6.533,6.743-7.455
				C85.895,118.492,84.387,130.01,81.079,134.155z M77.561,119.916c-3.853,1.928-5.319,13.652,2.345,11.685
				C82.712,128.669,83.089,119.287,77.561,119.916z M75.718,124.607c0.376-0.043,0.46,1.508-0.251,1.131
				C75.299,125.109,75.802,125.152,75.718,124.607z M75.718,126.24c0.88-0.21,0.502,1.508-0.251,1.131
				C75.425,126.826,75.509,126.492,75.718,126.24z M75.467,128.334c0.209-0.377,0.377-0.754,0.963-0.711c0,0.209,0,0.46,0,0.711
				c0.586-0.084-0.251,1.299,0.67,0.922c-0.167,0.335-0.586,0.502-1.172,0.461c-0.084-0.713,0.334-0.922,0.502-1.383
				C75.969,127.915,76.137,128.334,75.467,128.334z M76.179,122.973c0.586,0,0.084,0.755,0,0.922
				C75.467,123.728,76.389,123.393,76.179,122.973z M77.352,130.637c0-0.209,0.293-0.166,0.46-0.209
				C77.812,130.637,77.519,130.596,77.352,130.637z M82,117.361c0.251-0.67,1.005,0.042,1.423,0
				C83.047,118.031,82.545,117.654,82,117.361z M83.424,118.283c0.838-0.252,0.461,0.795,0.921,0.921
				C83.927,119.916,83.089,119.078,83.424,118.283z M84.806,130.428c-0.084,0.838-0.376,1.467-1.172,1.634
				C83.131,131.391,83.969,130.471,84.806,130.428z M85.267,128.543c0.335,0.084,0.209,0.587,0.251,0.922
				c-0.502,0.209-0.796,0.628-1.633,0.502C83.801,128.92,85.141,129.339,85.267,128.543z M84.094,120.377
				c0.712,0.042,1.34,0.084,1.173,0.963c-0.377,0-0.754,0-1.173,0C84.094,121.006,84.094,120.712,84.094,120.377z M85.979,127.162
				c-0.168,0.67-0.587,1.131-1.634,0.921C84.094,126.994,85.1,127.12,85.979,127.162z M85.728,122.01
				c0.042,0.42-0.251,0.503-0.209,0.963c-0.377,0-0.796,0-1.173,0C84.136,121.76,85.058,121.676,85.728,122.01z M85.979,123.434
				c0,0.922,0,1.843,0,2.807c-0.838-0.21-1.257,0.377-1.634,0c-0.083-1.131,1.299-0.754,1.382-1.633
				c-0.167-0.713-0.586,0.293-1.13,0c0-0.336,0-0.629,0-0.964C84.848,123.393,85.393,123.393,85.979,123.434z"/>
			<path fill="#FFFFFF" d="M88.616,117.403c0.712,0.67-0.796,1.466-0.879,2.262C86.69,118.66,88.365,118.031,88.616,117.403z
				 M88.868,118.533c1.382,0.754-0.754,1.97-1.131,2.807C86.983,120.336,88.742,119.539,88.868,118.533z M90.292,120.209
				c0.167,1.173-0.712,1.383-1.676,1.424C88.658,120.67,89.454,120.419,90.292,120.209z M115.168,134.322
				c-3.015-0.293-1.591-4.815-1.717-7.621c-0.126-3.393-0.251-6.869-1.674-8.46c-4.272,2.639-3.77,9.968-4.816,15.831
				c-0.838,0.502-2.346,0.795-3.393,0.25c-0.168-4.731,1.298-13.484-3.393-14.657c-1.214,0.335-1.591,1.591-2.806,1.968
				c-0.252,1.676-1.215,3.142-1.424,5.068c-0.292,2.764,0.795,6.197-1.131,8.208c-1.13-0.293-1.256-2.345-1.424-3.685
				c-0.376-3.729,0.042-9.005-0.251-12.439c-1.466-0.209-1.843,0.88-3.142,0.293c0.042-1.005,0.461-1.633,0.586-2.555
				c1.047-0.293,2.262-0.25,3.937,0c0.796,1.34-0.209,3.812,0.293,4.816c2.471-1.843,3.602-5.653,7.078-5.36
				c3.476,0.335,3.728,4.565,4.524,8.46c1.968-2.68,1.172-10.513,6.198-9.297C116.927,116.146,115.336,130.889,115.168,134.322z
				 M92.26,119.916c0.125,1.174-0.293,1.801-1.382,1.717C90.501,121.131,91.129,119.791,92.26,119.916z M92.26,121.633
				c0.754,0.838-0.042,2.555-1.131,2.555C90.92,122.723,91.841,122.43,92.26,121.633z M92.009,124.439
				c1.465,0.418,0,3.559-0.88,2.555C91.004,125.696,91.716,125.318,92.009,124.439z M92.26,127.58
				c1.047,1.172,0.125,2.178-0.251,3.352C90.627,130.219,91.883,128.293,92.26,127.58z M92.846,131.518
				c-0.377,0.879-0.251,2.219-1.424,2.262C91.59,132.731,91.757,131.686,92.846,131.518z M96.239,116.523
				c0.586,0.293,0.377,2.094-0.586,1.718C95.527,117.361,96.071,117.152,96.239,116.523z M101.6,128.125
				c1.256-0.377,1.8,0.712,1.131,1.424C101.934,129.465,101.516,129.047,101.6,128.125z M102.437,125.57
				c-0.628,0.168-0.377-0.545-0.837-0.545c0.042-0.712,0.418-1.089,1.131-1.131C102.772,124.564,102.772,125.234,102.437,125.57z
				 M101.892,129.801c1.131,0,1.214,1.046,1.131,2.261C101.851,132.104,101.809,131.057,101.892,129.801z M102.437,125.57
				c0.879,0.041,0.879,2.303-0.293,2.01C101.557,126.952,102.018,125.988,102.437,125.57z M101.892,132.354
				c0.796,0.042,1.173,0.503,1.131,1.425C102.228,133.736,101.809,133.275,101.892,132.354z M107.798,117.654
				c-0.042,0.922-0.167,1.718-1.131,1.718C106.122,118.701,106.458,117.277,107.798,117.654z M111.189,120.503
				c0.293,0,0.587,0,0.838,0c0,0.46,0,0.921,0,1.423c-0.335,0-0.712,0-1.089,0C110.812,121.256,110.98,120.838,111.189,120.503z
				 M111.189,124.439c0.921,0.042,1.257,0.67,1.131,1.717C111.441,126.115,111.106,125.528,111.189,124.439z M111.189,122.764
				c0.88-0.125,1.257,0.252,1.131,1.131c-0.377,0-0.754,0-1.131,0C111.189,123.518,111.189,123.141,111.189,122.764z
				 M111.483,126.449c0.67,0.252,1.382,0.461,1.131,1.676C111.692,128.083,111.357,127.496,111.483,126.449z M111.483,130.932
				c1.633,0.376,1.34,1.717,1.131,2.848C111.232,133.82,111.483,132.271,111.483,130.932z M111.483,128.711
				c0.922-0.084,1.34,0.336,1.424,1.09c-0.67,0.418-0.544,0.627-1.424,0.292C111.483,129.633,111.483,129.172,111.483,128.711z"/>
			<path fill="#FFFFFF" d="M117.763,118.66c0.461-0.043,0.461,0.293,0.838,0.293c0,1.005-0.544,1.466-1.424,1.633
				C117.052,119.582,117.512,119.287,117.763,118.66z M120.234,119.204c-0.251,1.132-1.549,2.346-2.471,1.927
				C118.392,120.336,119.062,119.497,120.234,119.204z M134.976,119.497c2.387-1.634,2.596-4.774,6.324-4.354
				c5.738,0.628,5.235,13.066,4.314,19.348c-2.429-3.35,0.419-15.998-4.607-16.123c-5.444-0.084-2.555,11.517-2.177,16.416
				c-1.466,0.293-2.43,0.293-3.854,0c-1.172-4.69,0.67-16.291-4.062-16.123c-4.481,0.209-3.602,10.847-3.309,15.83
				c-1.382-0.168-1.926,0.503-3.267,0.293c-0.628-5.234-0.334-11.307-0.837-16.668c-1.675-0.293-3.769,0.586-4.355-0.252
				c0.334-2.721,3.099-1.34,5.445-1.884c0.795,1.005,0.711,2.932,1.088,4.313c2.01-1.424,3.142-5.779,6.282-5.15
				C133.51,115.393,134.39,117.529,134.976,119.497z M121.574,118.66c0.461-0.043,0.461,0.293,0.838,0.293
				c0.042,1.298-0.921,1.633-2.178,1.633C120.737,119.958,120.988,119.121,121.574,118.66z M122.957,120
				c0,0.838-0.586,1.09-0.837,1.676C121.533,121.256,122.119,119.874,122.957,120z M122.412,121.969c1.214-0.043,0.125,1.089,0,1.34
				C121.616,123.1,122.538,122.43,122.412,121.969z M122.706,123.602c0.46,0.419,0.795,1.592-0.293,1.633
				C122.245,124.398,122.706,124.271,122.706,123.602z M131.165,120c0.586-0.879,1.717,0.754,1.088,1.131
				C131.583,121.047,131.625,120.293,131.165,120z M131.667,121.676c1.382-0.252,1.424,0.795,1.634,1.633
				C132.253,123.309,131.751,122.764,131.667,121.676z M131.961,123.602c0.67-0.125,0.628,0.461,1.34,0.293
				c0.126,0.587,0.502,1.006,0.292,1.885C132.253,125.821,131.835,124.984,131.961,123.602z M132.253,126.072
				c0.503-0.293,0.922,0.797,1.048,0c0.921,0.377,0.502,2.053,0.586,3.267C132.17,129.507,131.961,126.952,132.253,126.072z
				 M132.253,129.339c1.34-0.083,1.843,0.628,1.634,2.179C132.966,131.182,131.919,130.932,132.253,129.339z M132.547,131.518
				c1.046,0.293,1.675,1.047,1.591,2.471C133.259,134.532,131.667,132.648,132.547,131.518z M142.933,127.706
				c1.047,0.167,0.796,1.717,0.796,2.974C142.933,130.303,142.18,128.711,142.933,127.706z M142.933,122.764
				c0.838,0.043,0.461,1.34,0.503,2.179C142.933,124.564,142.222,123.518,142.933,122.764z M142.933,125.779
				c0.67-0.083,0.879,0.377,0.796,1.09C143.017,126.952,142.808,126.492,142.933,125.779z M142.933,130.973
				c0.963-0.168,0.838,0.796,0.796,1.633C143.143,132.354,142.892,131.811,142.933,130.973z"/>
			<path fill="#FFFFFF" d="M162.448,114.723c0.921,0.336,1.298-0.167,2.387,0.294c1.131,5.402,0.126,10.428,0.586,17.087
				c-0.921-0.042-0.963,0.795-2.093,0.586c-0.922-0.837-0.461-3.057-0.88-4.48c-2.429,1.004-2.178,4.48-5.068,4.48
				c-6.24,0.125-7.706-7.664-7.161-14.699c0.083-1.131-2.052-0.084-2.387-0.88c-0.042-2.094,3.141-0.88,4.774-1.173
				c-0.377,6.24-0.754,13.779,4.774,13.192C162.741,128.543,161.234,118.995,162.448,114.723z M153.485,117.445
				c0.964,0.209,1.717,0.67,1.802,1.759C154.239,120.041,153.151,118.953,153.485,117.445z M153.485,119.832
				c0.88,0.126,1.382,0.629,1.508,1.467c-0.502,0-0.963,0-1.508,0C153.485,120.795,153.485,120.336,153.485,119.832z
				 M153.485,121.926c0.838-0.25,0.796,0.378,1.508,0.294c0.168,1.257-0.083,2.094-1.508,1.801
				C153.485,123.309,153.485,122.596,153.485,121.926z M153.485,124.9c0.544,0,1.006,0,1.508,0
				c-0.209,0.921,0.544,0.879,0.294,1.842C154.03,126.826,153.695,125.863,153.485,124.9z M164.835,132.982
				c1.006-0.125,0.88,0.922,1.466,1.215C165.631,135.161,163.872,133.736,164.835,132.982z M166.05,122.22
				c1.298,0.167,2.345,1.884,1.424,3.309C166.175,125.276,165.756,124.062,166.05,122.22z M166.05,125.528
				c0.754,0.083,0.879,0.88,1.759,0.88c-0.042,0.837,0.167,1.968-0.335,2.429C166.217,128.502,165.924,127.203,166.05,125.528z
				 M166.05,116.816c1.089,0.168,1.633,0.922,1.424,2.388C166.091,119.33,166.008,118.157,166.05,116.816z M166.05,119.539
				c0.879,0,1.131,0.587,1.759,0.88c0,0.628,0,1.173,0,1.801C166.595,121.926,166.008,121.047,166.05,119.539z M166.05,131.476
				c1.173,0.125,2.387,1.423,1.424,2.722C166.217,134.113,166.343,132.605,166.05,131.476z M166.301,129.13c0.377,0,0.795,0,1.172,0
				c0.503,0.419,0.293,1.507,0.335,2.346C166.552,131.434,166.175,130.554,166.301,129.13z"/>
			<path fill="#FFFFFF" d="M170.278,114.682c0.67,0.67-1.088,1.005-1.13,1.801c-0.502,0.083-0.084-0.796-0.252-1.131
				C169.273,115.017,170.111,115.184,170.278,114.682z M170.278,115.812c0.963,0.126,0.503,2.388-0.46,2.052
				c0.126-0.544,0.837-0.418,0.712-1.13c-0.712,0.042-0.88,0.628-1.382,0.921C168.562,116.943,170.404,116.775,170.278,115.812z
				 M172.122,117.863c0.251,1.174-1.173,1.467-1.592,0.713C170.53,117.781,171.409,117.863,172.122,117.863z M171.2,115.143
				c2.262,0.209,3.853-0.126,6.45,0c-0.544,0.544,0.083,1.465,0.209,2.512c0.46,0,1.801-1.089,2.555-1.633
				c10.512-1.215,7.874,11.224,8.92,18.176c-0.921,0.712-1.382,0.544-2.722,0.67c-0.712-5.528,1.424-15.83-5.528-16.752
				c-0.879,0.042-1.131,0.67-2.053,0.67c-0.67,0.797-0.67,2.262-1.172,3.225c0,1.969,0,3.979,0,5.988
				c-0.042,1.76,1.801,6.199-0.921,6.409c-1.968-3.017-0.503-8.209-1.843-11.937c0.084-1.633,0.084-3.267-0.209-4.607
				c-0.796-0.418-1.592-0.795-2.974-0.67C171.618,116.565,171.661,115.603,171.2,115.143z M172.833,118.115c0.209,0,0.46,0,0.67,0
				c0.293,1.172-0.879,0.963-0.921,1.843C171.452,119.497,172.833,118.785,172.833,118.115z M174.425,119.037
				c-0.418,0.963-0.544,2.135-1.843,2.303C172.498,119.832,173.503,119.497,174.425,119.037z M174.425,120.88
				c-0.042,1.173-0.67,1.716-1.382,2.261C172.206,122.01,173.587,121.09,174.425,120.88z M174.216,122.68
				c0.837,0.378-0.209,2.095-1.173,2.095c0-0.461,0-0.922,0-1.382C173.797,123.477,174.006,123.1,174.216,122.68z M174.425,125.905
				c0.88-0.167,0.335,1.131,0.461,1.634c-1.089-0.043-0.67,1.884-1.843,1.13C173.545,127.789,174.131,126.952,174.425,125.905z
				 M174.425,124.523c0.754,0.753-0.754,1.256-0.67,2.094C172.917,125.779,174.131,125.025,174.425,124.523z M174.634,127.998
				c0.335,0.462,0.376,1.174,0.712,1.593c-0.88,0-0.921,0.921-1.382,1.382C172.624,130.01,174.466,128.92,174.634,127.998z
				 M174.886,130.512c1.13,0.587-0.377,2.346-1.131,2.514C173.545,131.601,174.131,131.015,174.886,130.512z M175.556,132.564
				c0.209,0.838-0.335,1.004-1.131,0.921C174.466,132.857,174.844,132.522,175.556,132.564z M182.466,119.497
				c0.125,0,0.335,0,0.461,0c0,0.126,0,0.294,0,0.461c-0.126,0-0.335,0-0.461,0C182.466,119.791,182.466,119.623,182.466,119.497z
				 M183.388,120.168c0.586,0.083,0.753,0.586,0.921,1.172c-0.251,0.168-0.335,0.377-0.461,0.67
				c-0.293-0.46-0.754-0.795-0.921-1.382C183.345,120.712,183.388,120.461,183.388,120.168z M184.77,123.393
				c0.167,0.125,0.376,0.209,0.67,0.209c0.209,1.299-1.005,2.095-1.592,1.843C183.638,124.313,184.392,124.021,184.77,123.393z
				 M185.69,127.539c-0.041,0.627,0.126,1.508-0.25,1.8c-0.168,0.084-0.461,0-0.461,0.252c0.251,0,0.461,0,0.711,0
				c0.587,0.88-0.795,1.424-1.172,2.052c0.712,0.043,0.712-0.502,1.382-0.461c-0.376,0.671,0,0.754-0.21,1.633
				c-0.67,0.127-0.963,0.545-1.633,0.671c0-0.587-0.083-1.341,0.251-1.591c-0.167,0-0.335,0-0.461,0
				c-0.042-0.713,0.502-0.713,0.461-1.383C183.177,129.717,184.392,127.412,185.69,127.539z M184.518,122.01
				c0.628,0.461-0.083,1.55-0.67,1.592C183.848,122.848,184.099,122.387,184.518,122.01z M185.69,125.444
				c0.42,1.885-1.256,1.718-1.633,2.765C183.806,127.371,184.267,125.318,185.69,125.444z M185.439,133.275
				c0.335,0.043,0.209,0.545,0.25,0.922c-0.25,0-0.46,0-0.711,0C184.727,133.443,185.355,133.611,185.439,133.275z"/>
			<path fill="#FFFFFF" d="M193.395,117.654c0.209,1.424-1.256,2.053-1.969,1.885C191.636,118.492,192.264,117.906,193.395,117.654z
				 M192.264,119.749c0.419-0.084,0.586-0.462,1.131-0.419c0,1.215-0.586,1.801-1.508,2.052
				C192.222,121.09,192.39,120.545,192.264,119.749z M195.07,120.126c0.167,0.754-0.46,0.796-0.418,1.466
				c-0.963,0.041-1.089,0.293-1.717-0.21C193.186,120.545,193.688,119.916,195.07,120.126z M200.431,134.449
				c-4.105-1.927-2.136-9.801-3.183-14.7c-0.419-0.754-2.387-0.084-2.806-0.838c-0.503-2.974,3.602-2.304,5.36-1.843
				c1.131,3.183-0.418,7.748,0.21,11.141c0.209,1.088,1.257,1.717,0.67,2.723c5.779,0.25,5.025-5.989,5.99-9.717
				c2.26,0.545,1.381,4.271,1.088,5.57C206.965,130.889,204.242,133.988,200.431,134.449z M194.652,124.523
				c0.209-1.215,0.879-1.969,1.926-2.304c0.418,0.838-0.838,1.592-1.256,2.304c0.754,0.084,0.544-0.838,1.507-0.629
				c-0.586,1.215-1.214,2.43-2.387,3.1c-0.126-1.089,0.418-1.55,0.879-2.094C195.28,124.607,194.652,124.857,194.652,124.523z
				 M194.861,128.46c-0.293-1.089,0.963-2.43,1.968-2.932c0,0.796-0.837,0.754-0.879,1.466c0.167,0.629,0.335-0.502,0.879-0.209
				c0.88,1.884-1.046,2.512-1.759,3.518c-1.172-0.88,0.46-2.094,0.879-2.68C195.406,127.748,195.154,128.083,194.861,128.46z
				 M196.578,120.377c-0.252,1.005-0.419,2.178-1.717,2.303c-0.083-1.13,0.67-1.298,0.461-2.554
				C195.824,120.126,196.326,120.126,196.578,120.377z M196.997,129.674c-0.126,1.131-0.418,2.095-1.466,2.304
				C194.819,130.932,195.866,128.92,196.997,129.674z M195.95,110.2c-0.796-0.126-0.419-1.633,0-1.842
				C197.081,108.524,196.369,109.823,195.95,110.2z M196.997,132.773c-0.167-0.586-0.544,0.293-0.837-0.168
				c0.125-0.418,0.461-0.544,0.419-1.047c1.256,0,1.131,1.256,1.759,1.844c-0.126,0.67-0.502,1.047-1.34,1.047
				C196.704,134.155,196.704,133.066,196.997,132.773z M196.369,111.038c0.125-0.461,0.168-1.047,0.879-1.006
				C197.416,110.786,196.997,110.996,196.369,111.038z M198.337,110.66c-0.126,0.712-0.167,1.508-1.089,1.383
				C197.248,111.247,197.374,110.535,198.337,110.66z M200.682,109.195c-4.606,2.764-3.895-5.57,0.419-3.141
				C201.645,107.143,200.766,108.106,200.682,109.195z M200.012,110.41c-0.377,0.544-0.167,1.633-1.256,1.465
				C199.007,111.205,198.965,110.326,200.012,110.41z M203.068,129.465c-0.166-0.628,0.168-0.922,0.797-0.796
				C203.656,128.963,203.697,129.591,203.068,129.465z M203.697,126.574c-0.041-1.256,0.629-2.763,1.676-2.261
				C205.205,125.402,204.996,126.492,203.697,126.574z M205.373,122.43c0.125,0.963-0.336,1.423-1.256,1.465
				c-0.168-1.047,0.293-1.508,0.879-1.842C205.164,122.136,205.33,122.22,205.373,122.43z"/>
			<path fill="#FFFFFF" d="M218.941,123.895c-0.502-0.125-0.461,0.252-0.881,0.168c-0.711-0.838-0.502-2.555-1.172-3.435
				c-0.627-0.292-1.424-0.419-2.43-0.335c-4.188,1.34-3.768,9.633-0.334,11.518c3.057,0.963,3.936-2.262,4.648-3.602
				c0.127,0.334,0.084-0.211,0.336-0.168c1.299,2.639-1.215,4.355-2.766,5.318c-2.512,0.126-3.559-1.256-5.15-2.052
				c-0.922-2.388-2.262-5.486-1.383-8.628c0.504-1.842,2.178-2.848,3.268-3.937c1.34-0.251,2.344-0.837,3.811-0.502
				C218.564,119.121,219.109,121.131,218.941,123.895z M210.146,130.805c0.754,0,0.754,0.838,0.545,1.34
				C210.271,131.895,210.02,131.559,210.146,130.805C209.645,130.764,210.314,130.051,210.146,130.805z M211.193,131.978
				c0.334,0.084,0.293,0.503,0.838,0.335c0.168,0.67-0.209,0.838-0.168,1.383C210.9,133.527,211.15,133.025,211.193,131.978z
				 M212.742,134.741c-0.418-0.46-0.586-0.962-0.334-1.716c0.586-0.084,0.711,0.293,1.004,0.502
				c0.211,0.586-0.543,0.126-0.334,0.712c0.041,0.251,0.461,0.126,0.334,0.502c0.084,0,0.127,0,0.168,0
				c0.502,0.042-0.125-1.046,0.377-1.046c0.879-0.21,0.377,0.879,0.502,1.381c-0.502,0.043-0.879-0.041-1.047-0.335
				C213.203,134.741,212.953,134.741,212.742,134.741z M212.408,123.56 M213.078,122.01c0.166,0.126,0.166,0.377,0.502,0.336
				c-0.084,0.25-0.336,0.334-0.67,0.334C212.91,122.387,213.119,122.346,213.078,122.01z M214.293,121.131
				c0.293-0.041,0.293,0.963,0,0.879C213.58,122.094,214.041,121.172,214.293,121.131z M215.34,120.963c0.166,0,0.334,0,0.502,0
				c0,0.587,0,1.173-0.711,1.047C215.004,121.466,215.34,121.382,215.34,120.963z M215.34,133.863
				c0.67,0.041,0.752,0.627,1.004,1.046c-0.543-0.083-0.586,0.335-1.213,0.167C215.172,134.616,215.088,134.113,215.34,133.863z
				 M216.512,121.508c0.461,0.168,0.461,1.172,0,1.34C215.592,122.89,216.092,121.633,216.512,121.508z M218.061,133.193
				c0.504,0.962-0.25,1.674-1.381,1.548c0-0.334,0-0.669,0-1.046C217.309,133.695,217.309,133.066,218.061,133.193z
				 M216.889,123.225c0.334-0.041,0.043,0.587,0.168,0.838C216.596,124.062,216.637,123.434,216.889,123.225z M219.443,131.978
				c0.502,0.712-0.168,1.508-0.838,1.55C218.145,132.898,218.605,131.895,219.443,131.978z"/>
			<path fill="#FFFFFF" d="M232.635,130.764c-2.262,0.754-8.375,3.936-10.68,0.754c-0.209-0.293-0.082-0.713-0.459-0.922
				c-0.713-6.365,4.732-6.743,9.883-6.826c0.461-2.598-0.377-5.612-2.639-5.696c-2.051-0.083-2.262,1.927-4.02,2.639
				c-0.293-3.853,5.568-5.319,7.914-2.639c2.68,3.142,0.797,11.56,2.932,14.993c-0.502,0.127-0.461,0.797-0.92,0.922
				C233.18,133.695,232.762,132.396,232.635,130.764z M231.379,128.752c0.209-0.754-0.42-1.967-0.754-2.637
				c-2.68,0.334-7.705,0.209-7.287,3.098C223.715,131.853,229.955,130.093,231.379,128.752z M224.428,133.359
				c0.418-0.125,0.418,0.252,0.754,0.168c0.125,0.502-0.084,0.712-0.127,1.089C224.385,134.699,224.008,133.904,224.428,133.359z
				 M230.625,128.125c-1.047,1.424-4.314,2.01-6.031,1.676C225.516,128.25,228.658,128.125,230.625,128.125z M225.684,127.957
				c-0.293-0.879,0.879-0.963,1.215-0.754C226.98,127.957,226.354,127.957,225.684,127.957z M225.809,133.527
				c0.211,0,0.42,0,0.629,0c0,0.545,0.041,1.089-0.295,1.256C225.473,134.909,225.6,133.779,225.809,133.527z M227.064,119.455
				c0.211,0.042,0.252,0.294,0.461,0.294c-0.084,0.46-0.334,0.712-0.795,0.796C226.311,120.084,226.898,119.791,227.064,119.455z
				 M227.064,134.449c-0.334-0.377,0-1.006,0.295-1.215c0.502,0.041,0.25,0.754,0.334,1.215
				C227.484,134.449,227.275,134.449,227.064,134.449z M227.693,127.664c-0.125-0.168-0.168-0.377-0.168-0.628
				c0.211-0.251,0.797-0.126,1.215-0.167C228.572,127.287,228.406,127.789,227.693,127.664z M227.986,119.749
				c-0.293-1.048,0.795-1.006,1.383-0.754c0,0.251,0,0.502,0,0.754C229.117,120,228.238,120,227.986,119.749z M228.74,132.898
				c0.504,0.043,0.377,1.006,0.168,1.257C228.113,134.197,228.154,133.066,228.74,132.898z M230.164,126.869
				c-0.041,0.418-0.545,0.334-0.963,0.334c-0.125-0.502,0.418-0.334,0.502-0.629C229.871,126.617,229.914,126.826,230.164,126.869z
				 M230.457,132.773c0.084-0.67,0.629-0.838,1.383-0.796c0.041,0.88-0.084,1.55-0.461,2.011
				C231.002,133.653,230.709,133.234,230.457,132.773z M232.176,133.234c0.543-0.168,0.502,0.293,0.754,0.461
				c-0.086,0.627-0.336,1.088-0.922,1.214C231.631,134.449,231.967,133.611,232.176,133.234z M233.85,134.783
				c-0.041,0.502-0.461,0.67-0.92,0.754C232.176,135.119,233.475,133.611,233.85,134.783z M233.85,136.334
				c-0.041-0.545,0.461-0.503,0.629-0.797c0.418,0,0.377,0.713,0.168,0.922C234.27,136.501,234.059,136.459,233.85,136.334z
				 M235.859,135.37c0.043,0.586,0.127,1.256-0.629,1.089C235.189,135.831,235.314,135.37,235.859,135.37z M237.41,135.244
				c0.084,0.629-0.377,0.712-0.922,0.754C236.322,135.285,237.033,134.909,237.41,135.244z M237.117,127.036
				c0.879,0.126,1.131-0.042,1.842,0.167c0.209,3.896-2.596,5.779-2.178,4.941C236.865,130.303,237.033,128.418,237.117,127.036z"/>
			<path fill="#FFFFFF" d="M239.043,112.462 M244.824,104.546c1.004,1.131,0.123,3.727,0.207,5.36
				c0.713,0.921,2.389,0.879,3.645,1.256c0.166,0.754-0.336,0.837-0.211,1.508c-0.963,0.168-2.512,0.67-3.434,0.209
				c-0.084,4.983-0.963,12.816-0.207,18.385c0.877,0.168,2.008,0.084,2.762,0.42c0,0.502,0,1.004,0,1.508
				c-1.885,0.25-3.014-0.252-4.27-0.671c-0.797-6.282,1.129-14.825-0.422-20.479c-0.92-0.168-2.512,0.377-2.764-0.461
				c0.084-1.089,1.928-0.46,2.764-0.837c0.84-1.172-0.418-4.565,0.631-5.989C244.277,104.671,244.654,104.756,244.824,104.546z
				 M240.76,113.299c0,0.126-0.041,0.252-0.209,0.209c0,0.252-0.295,0.127,0,0C240.551,113.383,240.592,113.258,240.76,113.299
				C241.012,112.671,241.891,113.551,240.76,113.299z M242.686,114.598c-0.838,0.125-0.795-0.629-1.297-0.88
				C241.766,112.797,243.064,113.508,242.686,114.598z M242.268,129.758c0.836,0.084-0.252,1.508-0.209,2.137
				c-0.211,0.041-0.211-0.084-0.211-0.209c-0.166,0-0.291,0-0.459,0C241.932,131.266,241.975,130.428,242.268,129.758z
				 M242.268,115.017c0.545,0.209-0.168,0.963-0.67,0.837C241.264,115.017,242.184,115.436,242.268,115.017z M242.686,107.52
				c-0.293,0.461-0.334,1.089-1.088,1.089C241.848,108.106,242.059,107.604,242.686,107.52z M242.686,115.854
				c0.84,1.047-0.754,1.508-0.627,2.598c-0.336-0.21-0.461-0.545-0.461-1.09C242.309,117.193,242.393,116.441,242.686,115.854z
				 M242.268,125.276c1.172,0.462-0.461,1.466-0.209,2.347C241.348,126.91,242.268,125.988,242.268,125.276z M242.268,133.82
				c0.879-0.041-0.043,1.256-0.42,1.299C241.598,134.322,242.352,134.49,242.268,133.82z M242.477,118.451
				c0.588,0.502-0.67,1.046-0.418,1.926C241.348,119.707,242.352,118.953,242.477,118.451z M242.268,127.832
				c0.586,0.502,0.545,1.717-0.209,1.926C241.473,129.297,242.1,128.293,242.268,127.832z M242.477,122.513
				c0.67,0.754-0.125,1.843-0.418,2.345C241.389,124.104,242.352,123.184,242.477,122.513z M242.477,120.377
				c0.713,0.713-0.377,1.467-0.418,2.136C241.514,121.969,242.352,120.963,242.477,120.377z M242.268,132.104
				c0.627,0.209-0.125,0.711,0,1.09C241.639,132.982,242.393,132.48,242.268,132.104z M242.268,109.237
				c0.418-0.084,0.293,0.963-0.209,0.67c0-0.167,0-0.293,0-0.46C242.225,109.488,242.268,109.362,242.268,109.237z M243.104,134.449
				c0.756-0.21,0.588,1.34-0.209,0.879C242.854,134.951,243.146,134.867,243.104,134.449z M244.824,133.611
				c0.5,0.418-0.252,1.465-0.84,1.508C244.111,134.49,244.488,134.029,244.824,133.611z M247.168,113.508
				c-0.127,0.461-0.504,0.629-0.42,1.299c-0.293,0-0.586,0-0.836,0c-0.211-0.251-0.295-0.586-0.252-1.089
				C246.455,114.137,246.455,113.635,247.168,113.508z M247.377,134.239c-0.67-0.084-0.754,0.377-1.465,0.21
				C245.869,133.611,247.377,133.318,247.377,134.239z"/>
			<path fill="#FFFFFF" d="M252.191,117.654c0.211,1.424-1.256,2.053-1.967,1.885C250.434,118.492,251.062,117.906,252.191,117.654z
				 M251.062,119.749c0.418-0.084,0.586-0.462,1.129-0.419c0,1.215-0.586,1.801-1.506,2.052
				C251.02,121.09,251.188,120.545,251.062,119.749z M253.867,120.126c0.168,0.754-0.461,0.796-0.418,1.466
				c-0.963,0.041-1.09,0.293-1.717-0.21C251.982,120.545,252.486,119.916,253.867,120.126z M259.229,134.449
				c-4.105-1.927-2.137-9.801-3.184-14.7c-0.418-0.754-2.387-0.084-2.805-0.838c-0.504-2.974,3.6-2.304,5.359-1.843
				c1.131,3.183-0.418,7.748,0.209,11.141c0.211,1.088,1.256,1.717,0.67,2.723c5.781,0.25,5.025-5.989,5.99-9.717
				c2.26,0.545,1.381,4.271,1.088,5.57C265.762,130.889,263.039,133.988,259.229,134.449z M253.449,124.523
				c0.209-1.215,0.879-1.969,1.926-2.304c0.42,0.838-0.836,1.592-1.256,2.304c0.752,0.084,0.543-0.838,1.508-0.629
				c-0.586,1.215-1.215,2.43-2.387,3.1c-0.127-1.089,0.418-1.55,0.879-2.094C254.076,124.607,253.449,124.857,253.449,124.523z
				 M253.658,128.46c-0.293-1.089,0.963-2.43,1.969-2.932c0,0.796-0.838,0.754-0.879,1.466c0.166,0.629,0.334-0.502,0.879-0.209
				c0.879,1.884-1.047,2.512-1.76,3.518c-1.172-0.88,0.461-2.094,0.881-2.68C254.203,127.748,253.951,128.083,253.658,128.46z
				 M255.375,120.377c-0.252,1.005-0.418,2.178-1.717,2.303c-0.084-1.13,0.67-1.298,0.461-2.554
				C254.621,120.126,255.123,120.126,255.375,120.377z M255.795,129.674c-0.127,1.131-0.42,2.095-1.467,2.304
				C253.615,130.932,254.662,128.92,255.795,129.674z M254.748,110.2c-0.797-0.126-0.42-1.633,0-1.842
				C255.879,108.524,255.166,109.823,254.748,110.2z M255.795,132.773c-0.168-0.586-0.545,0.293-0.838-0.168
				c0.125-0.418,0.459-0.544,0.418-1.047c1.256,0,1.131,1.256,1.76,1.844c-0.127,0.67-0.504,1.047-1.34,1.047
				C255.5,134.155,255.5,133.066,255.795,132.773z M255.166,111.038c0.125-0.461,0.166-1.047,0.879-1.006
				C256.213,110.786,255.795,110.996,255.166,111.038z M257.135,110.66c-0.127,0.712-0.168,1.508-1.09,1.383
				C256.045,111.247,256.17,110.535,257.135,110.66z M259.479,109.195c-4.607,2.764-3.895-5.57,0.42-3.141
				C260.443,107.143,259.564,108.106,259.479,109.195z M258.809,110.41c-0.377,0.544-0.168,1.633-1.256,1.465
				C257.805,111.205,257.764,110.326,258.809,110.41z M261.867,129.465c-0.168-0.628,0.166-0.922,0.795-0.796
				C262.453,128.963,262.494,129.591,261.867,129.465z M262.494,126.574c-0.041-1.256,0.629-2.763,1.676-2.261
				C264.002,125.402,263.793,126.492,262.494,126.574z M264.17,122.43c0.125,0.963-0.334,1.423-1.258,1.465
				c-0.166-1.047,0.295-1.508,0.881-1.842C263.961,122.136,264.129,122.22,264.17,122.43z"/>
			<path fill="#FFFFFF" d="M277.025,134.155c-6.24,1.843-8.92-3.644-8.627-9.8c1.34-3.393,2.932-6.533,6.742-7.455
				C281.842,118.492,280.334,130.01,277.025,134.155z M273.508,119.916c-3.854,1.928-5.318,13.652,2.346,11.685
				C278.658,128.669,279.035,119.287,273.508,119.916z M271.664,124.607c0.377-0.043,0.461,1.508-0.25,1.131
				C271.246,125.109,271.75,125.152,271.664,124.607z M271.664,126.24c0.881-0.21,0.504,1.508-0.25,1.131
				C271.371,126.826,271.455,126.492,271.664,126.24z M271.414,128.334c0.209-0.377,0.375-0.754,0.963-0.711c0,0.209,0,0.46,0,0.711
				c0.586-0.084-0.252,1.299,0.67,0.922c-0.166,0.335-0.586,0.502-1.174,0.461c-0.084-0.713,0.336-0.922,0.504-1.383
				C271.916,127.915,272.084,128.334,271.414,128.334z M272.125,122.973c0.588,0,0.084,0.755,0,0.922
				C271.414,123.728,272.334,123.393,272.125,122.973z M273.299,130.637c0-0.209,0.291-0.166,0.459-0.209
				C273.758,130.637,273.467,130.596,273.299,130.637z M277.947,117.361c0.25-0.67,1.004,0.042,1.424,0
				C278.994,118.031,278.492,117.654,277.947,117.361z M279.371,118.283c0.838-0.252,0.461,0.795,0.922,0.921
				C279.873,119.916,279.035,119.078,279.371,118.283z M280.754,130.428c-0.084,0.838-0.379,1.467-1.172,1.634
				C279.078,131.391,279.914,130.471,280.754,130.428z M281.213,128.543c0.336,0.084,0.209,0.587,0.252,0.922
				c-0.502,0.209-0.795,0.628-1.633,0.502C279.748,128.92,281.088,129.339,281.213,128.543z M280.041,120.377
				c0.713,0.042,1.342,0.084,1.172,0.963c-0.375,0-0.754,0-1.172,0C280.041,121.006,280.041,120.712,280.041,120.377z
				 M281.926,127.162c-0.168,0.67-0.586,1.131-1.633,0.921C280.041,126.994,281.047,127.12,281.926,127.162z M281.674,122.01
				c0.041,0.42-0.252,0.503-0.209,0.963c-0.377,0-0.795,0-1.172,0C280.082,121.76,281.004,121.676,281.674,122.01z M281.926,123.434
				c0,0.922,0,1.843,0,2.807c-0.838-0.21-1.256,0.377-1.633,0c-0.084-1.131,1.299-0.754,1.381-1.633
				c-0.168-0.713-0.586,0.293-1.131,0c0-0.336,0-0.629,0-0.964C280.795,123.393,281.34,123.393,281.926,123.434z"/>
			<path fill="#FFFFFF" d="M284.354,114.682c0.672,0.67-1.088,1.005-1.131,1.801c-0.502,0.083-0.084-0.796-0.25-1.131
				C283.348,115.017,284.186,115.184,284.354,114.682z M284.354,115.812c0.963,0.126,0.502,2.388-0.461,2.052
				c0.125-0.544,0.838-0.418,0.713-1.13c-0.713,0.042-0.879,0.628-1.383,0.921C282.637,116.943,284.48,116.775,284.354,115.812z
				 M286.197,117.863c0.25,1.174-1.172,1.467-1.592,0.713C284.605,117.781,285.484,117.863,286.197,117.863z M285.275,115.143
				c2.262,0.209,3.854-0.126,6.449,0c-0.545,0.544,0.084,1.465,0.209,2.512c0.461,0,1.801-1.089,2.555-1.633
				c10.512-1.215,7.875,11.224,8.922,18.176c-0.924,0.712-1.383,0.544-2.723,0.67c-0.713-5.528,1.424-15.83-5.529-16.752
				c-0.879,0.042-1.131,0.67-2.051,0.67c-0.67,0.797-0.67,2.262-1.174,3.225c0,1.969,0,3.979,0,5.988
				c-0.041,1.76,1.801,6.199-0.92,6.409c-1.969-3.017-0.504-8.209-1.844-11.937c0.084-1.633,0.084-3.267-0.209-4.607
				c-0.797-0.418-1.592-0.795-2.975-0.67C285.693,116.565,285.736,115.603,285.275,115.143z M286.908,118.115
				c0.209,0,0.461,0,0.67,0c0.295,1.172-0.879,0.963-0.922,1.843C285.525,119.497,286.908,118.785,286.908,118.115z M288.5,119.037
				c-0.418,0.963-0.545,2.135-1.844,2.303C286.574,119.832,287.578,119.497,288.5,119.037z M288.5,120.88
				c-0.043,1.173-0.67,1.716-1.383,2.261C286.281,122.01,287.662,121.09,288.5,120.88z M288.291,122.68
				c0.838,0.378-0.209,2.095-1.174,2.095c0-0.461,0-0.922,0-1.382C287.873,123.477,288.082,123.1,288.291,122.68z M288.5,125.905
				c0.879-0.167,0.334,1.131,0.461,1.634c-1.088-0.043-0.67,1.884-1.844,1.13C287.621,127.789,288.207,126.952,288.5,125.905z
				 M288.5,124.523c0.754,0.753-0.754,1.256-0.67,2.094C286.992,125.779,288.207,125.025,288.5,124.523z M288.709,127.998
				c0.336,0.462,0.377,1.174,0.711,1.593c-0.877,0-0.92,0.921-1.381,1.382C286.699,130.01,288.543,128.92,288.709,127.998z
				 M288.961,130.512c1.129,0.587-0.377,2.346-1.131,2.514C287.621,131.601,288.207,131.015,288.961,130.512z M289.629,132.564
				c0.213,0.838-0.332,1.004-1.129,0.921C288.543,132.857,288.918,132.522,289.629,132.564z M296.541,119.497
				c0.125,0,0.334,0,0.461,0c0,0.126,0,0.294,0,0.461c-0.127,0-0.336,0-0.461,0C296.541,119.791,296.541,119.623,296.541,119.497z
				 M297.463,120.168c0.586,0.083,0.752,0.586,0.92,1.172c-0.252,0.168-0.334,0.377-0.461,0.67c-0.291-0.46-0.752-0.795-0.92-1.382
				C297.42,120.712,297.463,120.461,297.463,120.168z M298.844,123.393c0.168,0.125,0.379,0.209,0.67,0.209
				c0.209,1.299-1.004,2.095-1.592,1.843C297.713,124.313,298.467,124.021,298.844,123.393z M299.766,127.539
				c-0.043,0.627,0.125,1.508-0.252,1.8c-0.166,0.084-0.461,0-0.461,0.252c0.252,0,0.461,0,0.713,0
				c0.586,0.88-0.795,1.424-1.172,2.052c0.711,0.043,0.711-0.502,1.381-0.461c-0.377,0.671,0,0.754-0.209,1.633
				c-0.67,0.127-0.963,0.545-1.635,0.671c0-0.587-0.082-1.341,0.252-1.591c-0.168,0-0.334,0-0.461,0
				c-0.041-0.713,0.504-0.713,0.461-1.383C297.254,129.717,298.467,127.412,299.766,127.539z M298.594,122.01
				c0.629,0.461-0.084,1.55-0.672,1.592C297.922,122.848,298.174,122.387,298.594,122.01z M299.766,125.444
				c0.418,1.885-1.256,1.718-1.635,2.765C297.881,127.371,298.342,125.318,299.766,125.444z M299.514,133.275
				c0.336,0.043,0.209,0.545,0.252,0.922c-0.252,0-0.461,0-0.713,0C298.803,133.443,299.432,133.611,299.514,133.275z"/>
			<path fill="#FFFFFF" d="M313.375,117.654c0.713,4.314,5.947,4.062,6.576,8.461c0.168,1.758-0.461,2.637-0.629,4.02
				c-1.424,2.932-6.699,2.764-8.668,0.419c-0.336-1.298-2.012-2.094-1.256-3.812c0.459,0.043,0.795-0.041,0.836-0.418
				c1.131,1.885,2.682,5.361,5.906,3.811c0.627-1.215,1.633-2.052,1.465-4.02c-1.34-2.346-3.643-3.686-5.486-5.487
				c-2.221,1.843-3.561,4.606-6.533,5.696c0,0.25-0.293,0.125,0,0C307.764,123.016,310.445,120.209,313.375,117.654z
				 M308.979,128.837c-0.125,1.214-0.293,1.55-0.461,2.974c0.293,0,0.293,0.251,0.672,0.209c-0.086-0.754,0-1.383,0.209-1.885
				c1.256,0.126,0.418,2.346,0.209,2.932c-0.754-0.041-1.09-0.461-1.09-1.256C308.057,131.141,308.1,129.297,308.979,128.837z
				 M310.445,131.601c0.209,0,0.418,0,0.627,0c0,0.88-1.131,2.472,0.418,2.513c0.084-0.334-0.166-0.377-0.418-0.418
				c0.545-0.21,0.418-1.131,0.629-1.676c1.34,0.209-0.127,2.053,0.418,2.764c-0.795-0.167-1.592-0.376-2.094-0.879
				C310.193,133.193,310.318,132.354,310.445,131.601z M311.281,122.094c0.209,0,0.42,0,0.629,0c0,0.21,0,0.419,0,0.629
				c-0.293,0-0.545,0-0.838,0C311.199,122.555,311.281,122.387,311.281,122.094z M312.746,132.648c0.295,0,0.588,0,0.84,0
				c0.125,0.963-0.336,1.297-0.211,2.345c-0.25,0-0.543,0-0.838,0C312.203,134.49,312.664,133.359,312.746,132.648z
				 M314.045,133.066c0.209,0,0.42,0,0.629,0c0.125,0.502-0.377,1.675,0.42,1.466c-0.211,0.335-0.67,0.335-1.049,0.461
				C313.627,134.239,314.045,133.945,314.045,133.066z M315.512,117.654c-0.041,0.629-1.258,0.587-1.047-0.209
				C314.842,117.068,315.051,117.529,315.512,117.654z M314.674,118.492c0.42,0,0.838,0,1.258,0
				c0.209,0.795-0.838,0.293-1.258,0.419C314.674,118.785,314.674,118.66,314.674,118.492z M316.768,119.791
				c-0.713-0.545-0.795,0.545-1.465,0C315.178,119.246,316.936,118.995,316.768,119.791z M316.559,132.857
				c0.168,1.088-0.168,1.675-1.047,1.675C315.094,133.736,315.428,132.731,316.559,132.857z M316.141,120
				c0.586,0.503,2.428-0.209,2.721,0.628c-0.293,0.754-1.172,0.167-2.303,0.419C316.475,120.628,316.098,120.503,316.141,120z
				 M318.234,132.229c0.084,0.713-0.461,0.797-0.629,1.257c-0.711,0.21-0.334-0.628-0.418-1.046
				C317.773,132.605,317.732,132.145,318.234,132.229z M319.951,121.466c-0.209,0.544-1.676,0.544-2.137,0.21
				C318.107,121.047,319.406,121.424,319.951,121.466z M320.16,122.513c-0.209,0.335-0.545,0.46-1.047,0.419
				C318.861,122.22,319.742,122.596,320.16,122.513z M320.369,130.973c0.127,0.922-0.377,1.172-0.627,1.676
				c-0.127-0.504-0.168-1.09-0.629-1.676C319.49,130.554,319.867,130.889,320.369,130.973z M321.207,129.256
				c0.168,0.67-0.209,0.795-0.209,1.298c-0.42,0-0.838,0-1.256,0C319.531,129.423,320.453,129.465,321.207,129.256z M319.742,123.56
				c-0.043-0.335,1.381-0.419,1.045,0.21C320.287,123.853,319.992,123.77,319.742,123.56z M320.998,124.398c0,0.376,0,0.711,0,1.088
				c-0.795,0.21-0.67-0.461-1.047-0.629C319.951,124.398,320.453,124.398,320.998,124.398z M320.369,122.513
				c0.127,0,0.293,0,0.418,0c0,0.126,0,0.294,0,0.419c-0.125,0-0.291,0-0.418,0C320.369,122.807,320.369,122.639,320.369,122.513z
				 M321.207,127.789 M321.416,126.742"/>
			<path fill="#FFFFFF" d="M326.818,133.109c0-1.006,0.754-2.43,2.471-2.43c1.383,0,2.471,0.921,2.471,2.346
				c0,1.382-0.963,2.555-2.512,2.555C327.572,135.58,326.818,134.239,326.818,133.109z M340.764,133.109
				c0-1.006,0.754-2.43,2.471-2.43c1.383,0,2.471,0.921,2.471,2.346c0,1.382-0.963,2.555-2.512,2.555
				C341.518,135.58,340.764,134.239,340.764,133.109z M354.711,133.109c0-1.006,0.752-2.43,2.469-2.43
				c1.383,0,2.473,0.921,2.473,2.346c0,1.382-0.965,2.555-2.512,2.555C355.463,135.58,354.711,134.239,354.711,133.109z"/>
		</g>
		<g>
			<path d="M62.025,136.25c-1.676-0.461-2.681,0.628-4.105,0.838c-5.695,0.922-11.769-2.095-12.857-6.533
				c-0.586-2.305-0.586-5.57-0.419-7.791c0.167-2.471,1.592-4.731,2.052-6.951c-2.219-2.22-4.816-4.062-5.528-7.79
				c1.257-2.22,3.853-1.968,6.324-3.057c0.712,1.466,0.377,3.183,2.262,3.476c1.172,0.209,1.885-1.34,3.057-2.052
				c1.089-0.586,5.78-2.387,7.79-2.429c2.262-0.042,3.727,1.34,4.9,3.057c0.628,7.539-5.738,9.088-12.481,8.585
				c-3.685,4.272-4.858,15.496,0.628,18.637c8.711,0,10.931-6.533,12.69-13.526c1.926,0.167,3.644-0.042,5.319,0.628
				C72.035,129.926,67.679,133.695,62.025,136.25z M43.639,108.651h-0.628c0.209,0.795-0.796,0.837-0.209,1.423
				C43.513,110.074,43.639,109.404,43.639,108.651z M44.854,111.331c0.084-0.88-0.25-1.257-0.837-1.466
				c-0.461,0.544-0.796,1.215-0.209,1.843C44.478,111.917,44.478,111.415,44.854,111.331z M67.972,121.76
				c-1.466-0.252-2.513,4.396-2.891,5.318c-0.628,1.55-1.842,4.23-3.056,5.318c-1.424,1.257-5.403,3.1-8.167,2.848
				c-8.962-0.754-8.46-17.966-1.633-21.274c5.109,2.345,13.611,0.292,12.48-6.952c-3.812-4.942-11.769,0.083-14.742,2.848
				c-1.759-0.544-1.968-2.638-3.267-3.644c-5.402,0.796,0.335,5.905,2.262,6.743c-4.188,6.827-5.696,19.853,2.01,22.909
				c1.55,0.586,4.104,0.838,5.947,0.586c5.487-0.754,10.638-5.067,11.853-10.01C69.228,124.607,68.977,121.927,67.972,121.76z
				 M47.115,112.964c-0.334-0.669-1.382-0.586-1.465-1.465c-0.712,0.042-0.88,0.628-0.796,1.465
				c0.545,0.126,0.964-0.921,1.215-0.418c-0.084,0.377-0.419,0.503-0.419,1.005C46.194,114.053,47.157,114.053,47.115,112.964z
				 M48.33,125.821c0.46-0.167,0.921-0.879,0.419-1.423h-0.629C47.828,124.691,47.744,125.821,48.33,125.821z M48.75,128.293
				c0.083-0.461,0.209-1.76-0.419-2.053C48.079,126.66,47.786,128.46,48.75,128.293z M48.121,122.973
				c-0.209,0.839,1.215,0.839,1.005,0C48.624,122.932,48.498,122.598,48.121,122.973z M49.335,129.717
				c0.042-0.503,0.042-1.006-0.377-1.006c-0.042,0.168-0.209,0.209-0.419,0.209C48.456,129.549,48.708,129.801,49.335,129.717z
				 M48.54,121.341v0.795h1.005C49.712,121.383,49.251,121.257,48.54,121.341z M49.544,120.713c0.168-0.21,0.293-0.545,0.209-1.006
				h-0.795C48.917,120.293,48.917,120.838,49.544,120.713z M49.754,130.345h-0.628c-0.126,0.88,0.377,1.132,0.837,1.424
				C50.257,131.477,49.922,130.764,49.754,130.345z M50.592,117.445c-1.005-0.209-1.256,1.089-0.838,1.633
				C50.55,119.078,50.592,118.283,50.592,117.445z M51.806,111.54c0.628-2.219,4.397-4.313,7.581-3.895
				c4.397,0.544,2.596,4.942-1.257,5.528C55.492,113.551,53.398,112.084,51.806,111.54z M54.654,109.488
				c-0.586,0.42-0.377,1.34,0.629,1.215C55.408,109.991,55.115,109.656,54.654,109.488z M55.492,112.126
				c1.927,0.503,4.439,0.209,4.9-1.424C59.093,109.908,56.246,110.662,55.492,112.126z M55.911,110.074
				c0.46,0.084,0.754,0,1.004-0.209c0.042-0.628-0.25-0.963-0.795-1.005c-0.083,0.168-0.209,0.252-0.419,0.209
				C55.533,109.656,55.994,109.614,55.911,110.074z M57.334,108.651c0.042,0.795,0.586,1.131,1.215,0.837
				C58.716,108.651,57.837,108.19,57.334,108.651z M68.768,129.926c-0.461-0.461-1.089,0.084-1.215,0.629
				C68.014,130.973,68.81,130.596,68.768,129.926z M70.233,127.287c-0.25-0.209-0.586-0.293-1.046-0.209
				c-0.042,0.461,0.042,0.754,0.209,1.006C69.898,128.041,70.192,127.789,70.233,127.287z M69.605,121.969
				c0,0.251,0.083,0.418,0.209,0.586c0.46-0.041,0.963-0.125,0.796-0.795C70.15,121.676,69.856,121.76,69.605,121.969z
				 M70.024,125.025c-0.251,0.294-0.67,0.796-0.209,1.215C70.61,126.492,70.61,125.025,70.024,125.025z M70.82,123.393
				c-0.251-0.084-0.377-0.293-0.796-0.209c-0.293,0.251-0.293,0.963,0,1.215C70.652,124.439,70.694,123.895,70.82,123.393z"/>
			<path d="M82.963,116.859c1.089,0.461,1.55,1.549,1.634,3.058c3.015,2.261,2.261,9.507,0.921,13.065
				c-2.219,1.34-4.188,3.687-6.994,3.729c-3.058-0.461-4.439-2.598-6.072-4.439c-1.634-4.691-0.294-10.345,2.093-13.066
				c1.592-0.713,2.806-1.844,4.439-2.555C80.074,116.524,81.623,116.691,82.963,116.859z M72.452,125.277
				c-0.294,6.156,2.387,11.643,8.626,9.799c3.309-4.145,4.816-15.662-1.884-17.254C75.383,118.743,73.792,121.885,72.452,125.277z
				 M77.561,120.838c5.528-0.629,5.151,8.753,2.345,11.685C72.242,134.49,73.708,122.764,77.561,120.838z M75.718,125.528
				c0.084,0.545-0.419,0.503-0.251,1.132C76.179,127.036,76.095,125.486,75.718,125.528z M75.718,127.162
				c-0.209,0.252-0.293,0.586-0.251,1.131C76.221,128.67,76.598,126.952,75.718,127.162z M75.928,130.638
				c0.586,0.042,1.005-0.126,1.172-0.461c-0.922,0.378-0.084-1.005-0.67-0.921c0-0.252,0-0.502,0-0.713
				c-0.586-0.041-0.754,0.336-0.963,0.713c0.67,0,0.502-0.419,0.963,0C76.263,129.717,75.844,129.926,75.928,130.638z
				 M76.179,123.895c0.21,0.419-0.712,0.754,0,0.922C76.263,124.648,76.765,123.895,76.179,123.895z M78.273,121.76
				c-1.843,3.098-2.094,7.831,1.424,9.799C81.205,128.754,82.587,122.555,78.273,121.76z M77.352,131.559
				c0.167-0.041,0.46,0,0.46-0.209C77.645,131.392,77.352,131.35,77.352,131.559z M82,118.283c0.544,0.293,1.047,0.67,1.423,0
				C83.005,118.324,82.251,117.613,82,118.283z M83.424,119.205c-0.334,0.795,0.503,1.633,0.921,0.921
				C83.885,120,84.262,118.953,83.424,119.205z M84.806,131.35c-0.837,0.042-1.675,0.963-1.172,1.633
				C84.43,132.816,84.722,132.188,84.806,131.35z M85.518,130.387c-0.042-0.335,0.084-0.838-0.251-0.922
				c-0.126,0.796-1.466,0.377-1.382,1.424C84.722,131.015,85.016,130.596,85.518,130.387z M85.267,122.262
				c0.167-0.879-0.461-0.921-1.173-0.963c0,0.334,0,0.628,0,0.963C84.513,122.262,84.89,122.262,85.267,122.262z M85.979,128.084
				c-0.88-0.043-1.885-0.168-1.634,0.92C85.393,129.214,85.812,128.754,85.979,128.084z M85.518,123.895
				c-0.042-0.46,0.251-0.544,0.209-0.963c-0.67-0.334-1.592-0.251-1.382,0.963C84.722,123.895,85.141,123.895,85.518,123.895z
				 M84.597,125.528c0.544,0.293,0.963-0.712,1.13,0c-0.083,0.88-1.466,0.503-1.382,1.634c0.377,0.377,0.796-0.21,1.634,0
				c0-0.964,0-1.885,0-2.807c-0.587-0.042-1.131-0.042-1.382,0.21C84.597,124.9,84.597,125.193,84.597,125.528z"/>
			<path d="M110.646,134.993c0.293-3.183,0.125-8.711-0.293-11.894c-2.472,2.722-1.759,8.627-2.806,12.731
				c-1.256,0.544-3.183,0.419-4.523,0.838c0-1.55-1.55-1.466-2.262-2.262c0.293-4.523,1.256-8.292-0.879-11.853
				c-4.775,1.592-2.639,8.418-3.644,13.57c-2.136,0.67-3.937,0.753-5.361,0.25c0-3.936-0.586-9.465-0.293-12.689
				c-1.214-0.67-2.22,0.293-3.685-0.293c-1.382-3.811,1.215-5.611,3.099-7.036c5.529,1.508,12.02-3.099,15.538,2.513
				c1.8-3.099,5.109-5.361,7.915-3.099c4.314,3.476,2.262,14.448,2.848,20.604C114.164,136.166,111.734,136.25,110.646,134.993z
				 M88.616,118.324c-0.251,0.629-1.926,1.258-0.879,2.262C87.82,119.791,89.329,118.995,88.616,118.324z M88.868,119.455
				c-0.126,1.006-1.885,1.802-1.131,2.807C88.114,121.424,90.25,120.209,88.868,119.455z M90.292,121.131
				c-0.838,0.21-1.634,0.461-1.676,1.424C89.58,122.514,90.459,122.304,90.292,121.131z M106.416,125.361
				c-0.796-3.896-1.048-8.125-4.524-8.461c-3.476-0.293-4.607,3.519-7.078,5.361c-0.502-1.005,0.503-3.477-0.293-4.816
				c-1.675-0.251-2.89-0.293-3.937,0c-0.125,0.922-0.544,1.55-0.586,2.555c1.298,0.586,1.676-0.503,3.142-0.293
				c0.293,3.434-0.125,8.711,0.251,12.438c0.168,1.341,0.294,3.393,1.424,3.687c1.926-2.011,0.838-5.444,1.131-8.208
				c0.209-1.927,1.172-3.393,1.424-5.068c1.214-0.377,1.591-1.633,2.806-1.969c4.691,1.174,3.225,9.926,3.393,14.658
				c1.046,0.545,2.554,0.252,3.393-0.251c1.046-5.863,0.544-13.192,4.816-15.83c1.423,1.591,1.548,5.067,1.674,8.46
				c0.126,2.805-1.298,7.328,1.717,7.621c0.168-3.434,1.759-18.176-2.554-19.181C107.588,114.849,108.384,122.681,106.416,125.361z
				 M92.26,120.838c-1.131-0.125-1.759,1.215-1.382,1.717C91.967,122.639,92.385,122.01,92.26,120.838z M92.26,122.555
				c-0.419,0.796-1.34,1.089-1.131,2.555C92.218,125.109,93.014,123.393,92.26,122.555z M92.009,125.361
				c-0.293,0.879-1.005,1.256-0.88,2.555C92.009,128.92,93.474,125.779,92.009,125.361z M92.26,128.502
				c-0.377,0.712-1.633,2.639-0.251,3.351C92.385,130.68,93.307,129.674,92.26,128.502z M92.846,132.439
				c-1.089,0.166-1.256,1.214-1.424,2.261C92.595,134.658,92.469,133.318,92.846,132.439z M96.239,117.445
				c-0.167,0.629-0.712,0.838-0.586,1.718C96.616,119.539,96.825,117.738,96.239,117.445z M101.6,129.047
				c-0.084,0.921,0.334,1.34,1.131,1.424C103.4,129.758,102.855,128.67,101.6,129.047z M101.6,125.947
				c0.46,0,0.209,0.713,0.837,0.545c0.335-0.336,0.335-1.006,0.293-1.676C102.018,124.857,101.642,125.235,101.6,125.947z
				 M101.892,130.723c-0.083,1.256-0.042,2.303,1.131,2.26C103.106,131.769,103.023,130.723,101.892,130.723z M102.437,126.492
				c-0.419,0.418-0.88,1.382-0.293,2.01C103.316,128.795,103.316,126.533,102.437,126.492z M101.892,133.276
				c-0.083,0.921,0.335,1.382,1.131,1.424C103.065,133.779,102.688,133.318,101.892,133.276z M107.798,118.576
				c-1.34-0.377-1.676,1.047-1.131,1.717C107.63,120.293,107.756,119.497,107.798,118.576z M112.027,122.848
				c0-0.502,0-0.963,0-1.424c-0.25,0-0.544,0-0.838,0c-0.209,0.336-0.377,0.754-0.251,1.424
				C111.315,122.848,111.692,122.848,112.027,122.848z M111.189,125.361c-0.083,1.088,0.252,1.675,1.131,1.717
				C112.446,126.031,112.111,125.402,111.189,125.361z M112.321,124.816c0.125-0.879-0.251-1.257-1.131-1.131
				c0,0.377,0,0.754,0,1.131C111.566,124.816,111.943,124.816,112.321,124.816z M111.483,127.371
				c-0.126,1.047,0.209,1.633,1.131,1.676C112.865,127.832,112.153,127.623,111.483,127.371z M111.483,131.853
				c0,1.341-0.251,2.89,1.131,2.848C112.823,133.568,113.116,132.229,111.483,131.853z M112.907,130.723
				c-0.083-0.755-0.502-1.174-1.424-1.09c0,0.461,0,0.922,0,1.382C112.363,131.35,112.237,131.141,112.907,130.723z"/>
			<path d="M142.096,134.617c-0.503-5.193,1.214-11.016-1.382-14.198c-4.774,1.759-0.419,11.894-1.382,16.124
				c-2.178,0.545-4.23-0.628-5.444,0.796c-0.586-0.67-1.466-1.132-2.22-1.634c-0.042-5.318-0.042-10.68-1.34-14.783
				c-3.811,3.182-1.842,9.506-1.884,15.076c-1.675,0.503-4.481,1.258-6.031,0.252c-0.377-4.691-0.419-9.758-1.633-13.652
				c-1.634-0.168-2.053,0.92-3.812,0.543c-1.214-2.805-0.544-4.857,1.34-6.24c2.011-0.166,3.937-0.963,6.031-0.837
				c0.252,0,1.256,0.587,1.634,0.544c2.136-0.251,3.476-1.675,5.444-1.381c0.921,0.125,1.885,1.842,2.722,1.884
				c1.047,0.084,2.68-1.968,3.56-2.136c10.344-2.513,9.339,13.025,9.046,21.275C144.86,136.92,143.437,135.328,142.096,134.617z
				 M118.602,119.875c-0.377,0-0.377-0.336-0.838-0.293c-0.251,0.627-0.711,0.921-0.586,1.926
				C118.057,121.341,118.602,120.88,118.602,119.875z M120.234,120.126c-1.173,0.293-1.842,1.131-2.471,1.927
				C118.685,122.471,119.983,121.257,120.234,120.126z M125.679,121.215c-0.377-1.383-0.293-3.309-1.088-4.314
				c-2.346,0.545-5.11-0.837-5.445,1.885c0.586,0.838,2.68-0.042,4.355,0.252c0.503,5.361,0.209,11.434,0.837,16.668
				c1.34,0.21,1.885-0.461,3.267-0.293c-0.292-4.984-1.172-15.621,3.309-15.83c4.732-0.168,2.89,11.433,4.062,16.123
				c1.424,0.293,2.387,0.293,3.854,0c-0.377-4.9-3.267-16.5,2.177-16.417c5.026,0.126,2.178,12.774,4.607,16.124
				c0.921-6.282,1.424-18.721-4.314-19.349c-3.728-0.419-3.937,2.722-6.324,4.355c-0.586-1.968-1.466-4.104-3.015-4.355
				C128.82,115.436,127.689,119.791,125.679,121.215z M122.412,119.875c-0.377,0-0.377-0.336-0.838-0.293
				c-0.586,0.46-0.837,1.298-1.34,1.926C121.491,121.508,122.454,121.173,122.412,119.875z M122.957,120.922
				c-0.837-0.127-1.424,1.256-0.837,1.676C122.37,122.01,122.957,121.76,122.957,120.922z M122.412,122.89
				c0.125,0.461-0.796,1.132,0,1.341C122.538,123.979,123.626,122.848,122.412,122.89z M122.706,124.523
				c0,0.67-0.461,0.796-0.293,1.633C123.501,126.115,123.166,124.942,122.706,124.523z M131.165,120.922
				c0.46,0.293,0.418,1.047,1.088,1.131C132.882,121.676,131.751,120.042,131.165,120.922z M131.667,122.598
				c0.084,1.088,0.586,1.633,1.634,1.633C133.092,123.393,133.05,122.346,131.667,122.598z M133.301,124.816
				c-0.712,0.168-0.67-0.418-1.34-0.293c-0.126,1.383,0.292,2.22,1.633,2.178C133.804,125.821,133.427,125.402,133.301,124.816z
				 M133.301,126.994c-0.126,0.795-0.544-0.293-1.048,0c-0.292,0.88-0.083,3.434,1.634,3.267
				C133.804,129.047,134.222,127.371,133.301,126.994z M132.253,130.261c-0.334,1.592,0.712,1.843,1.634,2.179
				C134.097,130.889,133.594,130.177,132.253,130.261z M132.547,132.439c-0.88,1.129,0.712,3.015,1.591,2.47
				C134.222,133.485,133.594,132.732,132.547,132.439z M142.933,128.628c-0.753,1.005,0,2.597,0.796,2.973
				C143.729,130.345,143.98,128.795,142.933,128.628z M142.933,123.686c-0.711,0.754,0,1.801,0.503,2.178
				C143.394,125.025,143.771,123.728,142.933,123.686z M142.933,126.701c-0.125,0.713,0.083,1.173,0.796,1.088
				C143.812,127.078,143.603,126.617,142.933,126.701z M142.933,131.895c-0.042,0.838,0.209,1.382,0.796,1.633
				C143.771,132.689,143.896,131.727,142.933,131.895z"/>
			<path d="M165.715,115.017c0.083,2.011,1.968,2.262,2.722,3.603c-0.251,5.82,0.335,12.396-0.335,17.715
				c-1.214,0.209-2.429-0.084-3.895,0.293c-0.921-0.67-1.507-1.592-2.053-2.723c-7.873,4.062-14.406-3.309-12.522-13.778
				c-0.083-1.131-2.178-0.167-2.68-0.88c-0.084-1.424,0.209-2.346,0.628-3.309c1.885-0.586,3.644,0.377,5.654-0.293
				c0.837,1.256,1.633,2.555,2.974,3.267c-0.126,3.142-1.508,10.009,1.466,10.219c2.806,0.21,4.606-9.884,3.602-14.113
				C163.202,115.184,163.747,115.184,165.715,115.017z M152.606,116.859c-1.634,0.293-4.816-0.922-4.774,1.173
				c0.335,0.796,2.471-0.251,2.387,0.879c-0.544,7.036,0.921,14.825,7.161,14.7c2.89,0,2.639-3.476,5.068-4.481
				c0.418,1.425-0.042,3.644,0.88,4.481c1.13,0.209,1.172-0.629,2.093-0.586c-0.46-6.66,0.545-11.685-0.586-17.088
				c-1.088-0.461-1.466,0.043-2.387-0.293c-1.214,4.272,0.292,13.82-5.068,14.407C151.853,130.638,152.229,123.1,152.606,116.859z
				 M153.485,118.367c-0.334,1.508,0.754,2.596,1.802,1.759C155.203,119.037,154.449,118.576,153.485,118.367z M154.993,122.22
				c-0.125-0.837-0.628-1.34-1.508-1.466c0,0.503,0,0.963,0,1.466C154.03,122.22,154.491,122.22,154.993,122.22z M154.993,123.141
				c-0.711,0.084-0.67-0.543-1.508-0.293c0,0.67,0,1.383,0,2.095C154.91,125.235,155.161,124.398,154.993,123.141z M154.993,125.821
				c-0.502,0-0.963,0-1.508,0c0.21,0.964,0.544,1.927,1.802,1.843C155.538,126.701,154.784,126.743,154.993,125.821z
				 M164.835,133.904c-0.963,0.754,0.796,2.178,1.466,1.215C165.715,134.826,165.841,133.779,164.835,133.904z M166.05,123.141
				c-0.293,1.844,0.125,3.058,1.424,3.309C168.395,125.025,167.348,123.309,166.05,123.141z M167.809,127.33
				c-0.88,0-1.005-0.797-1.759-0.881c-0.125,1.676,0.167,2.975,1.424,3.309C167.977,129.298,167.767,128.166,167.809,127.33z
				 M166.05,117.738c-0.042,1.34,0.042,2.513,1.424,2.388C167.683,118.66,167.139,117.906,166.05,117.738z M167.809,121.341
				c-0.628-0.294-0.88-0.88-1.759-0.88c-0.042,1.508,0.545,2.387,1.759,2.68C167.809,122.514,167.809,121.969,167.809,121.341z
				 M166.05,132.396c0.293,1.131,0.167,2.639,1.424,2.723C168.437,133.82,167.223,132.522,166.05,132.396z M167.474,130.052
				c-0.377,0-0.795,0-1.172,0c-0.126,1.425,0.251,2.303,1.508,2.345C167.767,131.559,167.977,130.471,167.474,130.052z"/>
			<path d="M178.571,115.812c3.853-0.502,6.869,1.004,9.171,2.764c2.555,4.188,1.718,11.769,2.764,17.465
				c-1.424,0.628-3.141,0.041-5.067,0.67c-0.879-0.922-1.508-1.969-2.513-2.765c-0.335-0.921,0.502-0.712,0.461-1.382
				c0.502-0.461-0.461-1.633-0.461-1.842c0-0.252,0.544-0.797,0.461-1.341c-0.378-2.597,0.543-7.958-2.765-9.214
				c-4.397,2.764-0.922,10.26-1.842,15.621c-1.676,0.628-4.859,0-5.947-1.382c-0.167-4.942-0.335-9.632-1.173-12.857
				c-1.005-0.587-1.382-1.801-3.225-1.591c-0.67-1.131-0.084-2.053-0.209-3.686c0.963-0.503,1.8-1.09,2.303-2.053
				C172.08,116.775,176.309,113.886,178.571,115.812z M169.148,117.403c0.042-0.796,1.801-1.13,1.13-1.801
				c-0.167,0.503-1.005,0.335-1.382,0.671C169.064,116.607,168.646,117.487,169.148,117.403z M170.53,117.654
				c0.125,0.713-0.586,0.587-0.712,1.131c0.963,0.336,1.424-1.926,0.46-2.051c0.126,0.963-1.716,1.13-1.13,1.842
				C169.65,118.283,169.818,117.697,170.53,117.654z M172.122,118.785c-0.712,0-1.592-0.083-1.592,0.712
				C170.949,120.251,172.373,119.959,172.122,118.785z M174.886,118.785c0.293,1.341,0.293,2.975,0.209,4.607
				c1.34,3.728-0.125,8.92,1.843,11.936c2.722-0.209,0.88-4.648,0.921-6.408c0-2.01,0-4.02,0-5.988
				c0.502-0.963,0.502-2.429,1.172-3.225c0.922,0,1.173-0.629,2.053-0.67c6.952,0.922,4.816,11.224,5.528,16.752
				c1.34-0.126,1.801,0.042,2.722-0.67c-1.046-6.953,1.592-19.391-8.92-18.176c-0.754,0.544-2.094,1.633-2.555,1.633
				c-0.126-1.047-0.754-1.969-0.209-2.513c-2.597-0.126-4.188,0.21-6.45,0c0.461,0.461,0.418,1.424,0.712,2.052
				C173.294,117.99,174.09,118.367,174.886,118.785z M173.503,119.037c-0.209,0-0.461,0-0.67,0c0,0.67-1.382,1.382-0.251,1.843
				C172.624,120,173.797,120.209,173.503,119.037z M174.425,119.959c-0.921,0.46-1.927,0.795-1.843,2.303
				C173.88,122.095,174.006,120.922,174.425,119.959z M174.425,121.801c-0.837,0.209-2.219,1.131-1.382,2.262
				C173.754,123.518,174.383,122.973,174.425,121.801z M173.042,125.696c0.964,0,2.01-1.718,1.173-2.095
				c-0.209,0.42-0.419,0.797-1.173,0.712C173.042,124.775,173.042,125.235,173.042,125.696z M174.886,128.46
				c-0.125-0.503,0.419-1.8-0.461-1.634c-0.293,1.048-0.879,1.885-1.382,2.765C174.216,130.345,173.797,128.418,174.886,128.46z
				 M174.425,125.444c-0.293,0.503-1.508,1.257-0.67,2.095C173.671,126.701,175.179,126.198,174.425,125.444z M175.346,130.512
				c-0.335-0.418-0.377-1.13-0.712-1.592c-0.168,0.922-2.01,2.012-0.67,2.975C174.425,131.434,174.466,130.512,175.346,130.512z
				 M174.886,131.434c-0.754,0.502-1.34,1.089-1.131,2.513C174.508,133.779,176.016,132.02,174.886,131.434z M175.556,133.485
				c-0.712-0.041-1.089,0.294-1.131,0.922C175.22,134.49,175.765,134.322,175.556,133.485z M182.927,120.88c0-0.167,0-0.335,0-0.461
				c-0.126,0-0.335,0-0.461,0c0,0.126,0,0.294,0,0.461C182.591,120.88,182.801,120.88,182.927,120.88z M183.848,122.932
				c0.126-0.293,0.209-0.502,0.461-0.67c-0.167-0.586-0.335-1.089-0.921-1.172c0,0.293-0.042,0.543-0.461,0.46
				C183.094,122.136,183.555,122.471,183.848,122.932z M185.439,124.523c-0.293,0-0.502-0.084-0.67-0.21
				c-0.377,0.629-1.131,0.922-0.922,2.052C184.434,126.617,185.649,125.821,185.439,124.523z M183.848,132.816
				c0.126,0,0.293,0,0.461,0c-0.335,0.25-0.251,1.004-0.251,1.591c0.67-0.126,0.963-0.544,1.633-0.671
				c0.21-0.879-0.167-0.963,0.21-1.633c-0.67-0.041-0.67,0.502-1.382,0.461c0.377-0.629,1.76-1.173,1.172-2.053
				c-0.25,0-0.46,0-0.711,0c0-0.251,0.293-0.167,0.461-0.251c0.376-0.293,0.209-1.173,0.25-1.801
				c-1.298-0.126-2.513,2.178-1.381,2.974C184.35,132.104,183.806,132.104,183.848,132.816z M184.518,122.932
				c-0.418,0.377-0.67,0.838-0.67,1.592C184.434,124.481,185.146,123.393,184.518,122.932z M185.69,126.365
				c-1.423-0.125-1.884,1.928-1.633,2.765C184.434,128.084,186.11,128.25,185.69,126.365z M185.69,135.119
				c-0.041-0.377,0.084-0.88-0.25-0.922c-0.084,0.335-0.712,0.168-0.461,0.922C185.23,135.119,185.439,135.119,185.69,135.119z"/>
			<path d="M202.398,135.998c-1.088,0.377-3.434,0.88-4.774,0.629c-3.182-0.712-4.565-7.707-4.062-12.857
				c-0.46-0.502-2.052,0.084-2.555-0.419c-0.335-0.964-0.126-2.471-0.418-3.519c1.256-1.089,2.555-2.219,3.853-3.308
				c0.921,1.466,4.313,0.042,6.24,0.628c0.962,4.146-0.67,9.465,0.837,13.066c1.717-1.633,1.299-5.276,1.928-7.915
				c1.256-1.089,3.057-1.759,5.191-1.005C209.143,128.041,207.133,134.281,202.398,135.998z M193.395,118.576
				c-1.131,0.252-1.759,0.838-1.969,1.885C192.139,120.629,193.604,120,193.395,118.576z M193.395,120.251
				c-0.545-0.042-0.711,0.335-1.131,0.42c0.126,0.795-0.042,1.339-0.377,1.633C192.809,122.053,193.395,121.466,193.395,120.251z
				 M194.652,122.514c-0.042-0.67,0.586-0.713,0.418-1.467c-1.382-0.209-1.885,0.419-2.136,1.257
				C193.562,122.807,193.688,122.555,194.652,122.514z M194.19,111.582c0.503-3.476,3.644-6.24,7.329-5.235
				c1.174,3.602-0.166,8.418-4.271,7.456C195.908,113.551,195.74,112.084,194.19,111.582z M206.672,122.136
				c-0.965,3.728-0.211,9.968-5.99,9.717c0.587-1.006-0.461-1.634-0.67-2.723c-0.628-3.392,0.921-7.957-0.21-11.14
				c-1.758-0.461-5.863-1.131-5.36,1.842c0.418,0.754,2.387,0.085,2.806,0.839c1.047,4.899-0.922,12.773,3.183,14.7
				c3.811-0.462,6.534-3.561,7.329-7.665C208.053,126.408,208.932,122.681,206.672,122.136z M194.442,127.916
				c1.172-0.67,1.8-1.885,2.387-3.1c-0.963-0.209-0.753,0.712-1.507,0.628c0.418-0.712,1.675-1.466,1.256-2.304
				c-1.047,0.336-1.717,1.09-1.926,2.304c0,0.335,0.628,0.084,0.67,0.377C194.861,126.365,194.316,126.826,194.442,127.916z
				 M195.07,131.225c0.712-1.006,2.639-1.634,1.759-3.519c-0.544-0.292-0.712,0.837-0.879,0.21c0.042-0.713,0.879-0.67,0.879-1.467
				c-1.005,0.503-2.261,1.844-1.968,2.933c0.293-0.378,0.545-0.712,1.089-0.839C195.531,129.13,193.898,130.345,195.07,131.225z
				 M194.861,123.602c1.298-0.125,1.465-1.298,1.717-2.303c-0.252-0.252-0.754-0.252-1.256-0.252
				C195.531,122.304,194.777,122.471,194.861,123.602z M196.997,130.596c-1.13-0.754-2.178,1.257-1.466,2.303
				C196.578,132.689,196.871,131.727,196.997,130.596z M195.95,111.122c0.419-0.377,1.131-1.675,0-1.843
				C195.531,109.488,195.154,110.996,195.95,111.122z M198.337,134.322c-0.628-0.586-0.502-1.842-1.759-1.842
				c0.042,0.502-0.293,0.629-0.419,1.047c0.293,0.461,0.67-0.418,0.837,0.168c-0.293,0.293-0.293,1.381,0,1.676
				C197.834,135.371,198.211,134.993,198.337,134.322z M196.369,111.959c0.628-0.042,1.047-0.251,0.879-1.005
				C196.537,110.912,196.494,111.499,196.369,111.959z M198.337,111.582c-0.963-0.125-1.089,0.586-1.089,1.382
				C198.169,113.09,198.211,112.294,198.337,111.582z M200.682,110.117c0.084-1.089,0.962-2.053,0.419-3.142
				C196.787,104.547,196.076,112.88,200.682,110.117z M200.012,111.331c-1.047-0.083-1.005,0.795-1.256,1.466
				C199.845,112.964,199.635,111.875,200.012,111.331z M203.068,130.387c0.629,0.125,0.588-0.503,0.797-0.796
				C203.236,129.465,202.902,129.758,203.068,130.387z M203.697,127.496c1.299-0.082,1.508-1.172,1.676-2.261
				C204.326,124.732,203.656,126.24,203.697,127.496z M204.117,124.816c0.92-0.041,1.381-0.503,1.256-1.466
				c-0.043-0.21-0.209-0.293-0.377-0.378C204.41,123.309,203.949,123.77,204.117,124.816z"/>
			<path d="M216.01,125.528c-0.336-0.419,0-1.507-0.504-1.759c-4.48-0.084-3.811,7.412-0.879,8.459
				c2.262-0.125,2.973-1.717,3.268-3.811c0.627-0.084,1.297-0.042,2.094-0.334c1.172,4.898,0.168,8.836-5.863,8.627
				c-1.676-0.504-2.639-1.635-3.979-2.43c-1.551-5.067-1.885-12.773,2.43-14.951c1.717-0.252,2.764-1.466,4.814-0.879
				c1.551,1.34,2.807,3.936,2.221,6.868C218.564,125.528,217.559,125.696,216.01,125.528z M213.078,119.665
				c-1.09,1.089-2.764,2.095-3.268,3.937c-0.879,3.142,0.461,6.24,1.383,8.627c1.592,0.797,2.639,2.179,5.15,2.053
				c1.551-0.963,4.064-2.681,2.766-5.318c-0.252-0.043-0.209,0.502-0.336,0.167c-0.713,1.341-1.592,4.565-4.648,3.603
				c-3.434-1.886-3.854-10.178,0.334-11.518c1.006-0.084,1.803,0.042,2.43,0.335c0.67,0.88,0.461,2.597,1.172,3.435
				c0.42,0.083,0.379-0.293,0.881-0.168c0.168-2.764-0.377-4.774-2.053-5.653C215.422,118.828,214.418,119.414,213.078,119.665z
				 M210.691,133.066c0.209-0.502,0.209-1.34-0.545-1.34c0.168-0.754-0.502-0.041,0,0
				C210.02,132.48,210.271,132.816,210.691,133.066z M212.031,133.234c-0.545,0.168-0.504-0.252-0.838-0.336
				c-0.043,1.048-0.293,1.551,0.67,1.719C211.822,134.072,212.199,133.904,212.031,133.234z M214.459,135.998
				c-0.125-0.502,0.377-1.591-0.502-1.381c-0.502,0,0.125,1.088-0.377,1.046c-0.041,0-0.084,0-0.168,0
				c0.127-0.376-0.293-0.251-0.334-0.502c-0.209-0.587,0.545-0.126,0.334-0.712c-0.293-0.21-0.418-0.586-1.004-0.503
				c-0.252,0.754-0.084,1.257,0.334,1.717c0.211,0,0.461,0,0.67,0C213.58,135.957,213.957,136.041,214.459,135.998z
				 M212.408,124.481 M213.58,123.268c-0.336,0.041-0.336-0.21-0.502-0.336c0.041,0.336-0.168,0.377-0.168,0.67
				C213.244,123.602,213.496,123.518,213.58,123.268z M214.293,122.053c-0.252,0.042-0.713,0.963,0,0.879
				C214.586,123.016,214.586,122.01,214.293,122.053z M215.842,121.885c-0.168,0-0.336,0-0.502,0c0,0.419-0.336,0.502-0.209,1.047
				C215.842,123.058,215.842,122.471,215.842,121.885z M216.344,135.831c-0.252-0.419-0.334-1.005-1.004-1.047
				c-0.252,0.251-0.168,0.753-0.209,1.214C215.758,136.166,215.801,135.747,216.344,135.831z M216.512,122.43
				c-0.42,0.125-0.92,1.382,0,1.34C216.973,123.602,216.973,122.598,216.512,122.43z M216.68,135.663
				c1.131,0.126,1.885-0.587,1.381-1.55c-0.752-0.125-0.752,0.504-1.381,0.504C216.68,134.993,216.68,135.328,216.68,135.663z
				 M216.889,124.146c-0.252,0.209-0.293,0.838,0.168,0.838C216.932,124.732,217.223,124.104,216.889,124.146z M219.443,132.898
				c-0.838-0.082-1.299,0.922-0.838,1.551C219.275,134.407,219.945,133.611,219.443,132.898z"/>
			<path d="M238.959,136.166c-0.711,1.215-3.729,2.555-5.109,1.844c-0.336-0.168-0.461-0.629-0.92-0.922
				c-0.336-0.21-0.881-0.168-1.09-0.336c-0.545-0.418-0.795-1.34-1.551-1.508c-0.961,0.587-2.639,0.545-3.391,1.383
				c-3.686-0.252-5.152-2.807-6.324-5.57c0.67-4.983,4.146-7.203,10.176-6.826c0.629-3.184-3.434-3.058-4.145-1.215
				c-1.09-0.335-2.221-0.67-2.807-1.55c0.334-2.681,2.344-3.644,4.355-4.649c8.25-0.627,5.988,9.257,7.412,15.455
				c1.508-0.713,0.713-3.602,1.09-5.068c1.09,0.252,1.717,0.043,2.764,0.293C239.504,130.471,240.215,134.03,238.959,136.166z
				 M235.566,133.988c-2.135-3.434-0.252-11.853-2.932-14.993c-2.346-2.681-8.207-1.214-7.914,2.638
				c1.758-0.711,1.969-2.722,4.02-2.638c2.262,0.083,3.1,3.1,2.639,5.696c-5.15,0.084-10.596,0.461-9.883,6.826
				c0.377,0.209,0.25,0.627,0.459,0.922c2.305,3.182,8.418,0,10.68-0.754c0.127,1.633,0.545,2.932,2.012,3.224
				C235.105,134.784,235.064,134.113,235.566,133.988z M230.625,127.036c0.334,0.67,0.963,1.884,0.754,2.638
				c-1.424,1.341-7.664,3.1-8.041,0.462C222.92,127.246,227.945,127.371,230.625,127.036z M225.182,134.449
				c-0.336,0.083-0.336-0.293-0.754-0.168c-0.42,0.545-0.043,1.34,0.627,1.256C225.098,135.161,225.307,134.951,225.182,134.449z
				 M230.625,129.047c-1.967,0-5.109,0.125-6.031,1.676C226.311,131.057,229.578,130.471,230.625,129.047z M225.684,128.879
				c0.67,0,1.297,0,1.215-0.754C226.562,127.916,225.391,128,225.684,128.879z M226.438,134.449c-0.209,0-0.418,0-0.629,0
				c-0.209,0.251-0.336,1.382,0.334,1.256C226.479,135.537,226.438,134.993,226.438,134.449z M227.525,120.671
				c-0.209,0-0.25-0.252-0.461-0.294c-0.166,0.336-0.754,0.629-0.334,1.089C227.191,121.383,227.441,121.131,227.525,120.671z
				 M227.359,134.156c-0.295,0.209-0.629,0.837-0.295,1.215c0.211,0,0.42,0,0.629,0
				C227.609,134.909,227.861,134.197,227.359,134.156z M227.525,127.957c0,0.252,0.043,0.461,0.168,0.629
				c0.713,0.125,0.879-0.377,1.047-0.797C228.322,127.832,227.736,127.706,227.525,127.957z M229.369,119.917
				c-0.588-0.252-1.676-0.294-1.383,0.754c0.252,0.251,1.131,0.251,1.383,0C229.369,120.419,229.369,120.168,229.369,119.917z
				 M228.74,133.82c-0.586,0.168-0.627,1.299,0.168,1.256C229.117,134.826,229.244,133.863,228.74,133.82z M229.201,128.125
				c0.418,0,0.922,0.084,0.963-0.336c-0.25-0.041-0.293-0.25-0.461-0.293C229.619,127.789,229.076,127.623,229.201,128.125z
				 M231.84,132.898c-0.754-0.041-1.299,0.127-1.383,0.797c0.252,0.461,0.545,0.879,0.922,1.214
				C231.756,134.449,231.881,133.779,231.84,132.898z M232.93,134.617c-0.252-0.168-0.211-0.629-0.754-0.461
				c-0.209,0.376-0.545,1.215-0.168,1.675C232.594,135.705,232.844,135.244,232.93,134.617z M233.85,135.705
				c-0.375-1.173-1.674,0.336-0.92,0.754C233.389,136.375,233.809,136.207,233.85,135.705z M234.479,136.459
				c-0.168,0.293-0.67,0.252-0.629,0.797c0.209,0.125,0.42,0.166,0.797,0.125C234.855,137.171,234.896,136.459,234.479,136.459z
				 M235.859,136.291c-0.545,0-0.67,0.461-0.629,1.09C235.986,137.548,235.902,136.878,235.859,136.291z M237.41,136.166
				c-0.377-0.335-1.088,0.041-0.922,0.754C237.033,136.878,237.494,136.795,237.41,136.166z M238.959,128.125
				c-0.711-0.209-0.963-0.041-1.842-0.168c-0.084,1.383-0.252,3.268-0.336,5.109C236.363,133.904,239.168,132.02,238.959,128.125z"
				/>
			<path d="M245.66,104.839c1.004,1.466,0.041,3.77,0.252,5.738c0.836,0.377,1.926,0.503,3.182,0.461
				c-0.125,1.214,0.377,1.759,0.211,2.974c-0.463,1.885-2.682,2.01-4.062,3.016c1.422,4.438-0.713,8.879-0.211,13.861
				c0.42,0.797,1.76,0.67,3.016,0.67c0.713,1.844,0.168,3.561-0.67,4.9c-2.514-0.628-4.732,1.173-6.617-0.418
				c0.252-7.665,0.168-12.229,0.209-20.312c-0.713-0.461-2.137-0.126-3.182-0.209c-0.838-2.012,0.5-3.351,1.465-4.691
				c0.629-0.083,0.67,0.461,1.299,0.419c0.125-2.723,0.879-4.482,2.135-6.408C243.525,105.217,244.824,105.007,245.66,104.839z
				 M239.043,113.383 M242.895,111.666c-0.836,0.377-2.68-0.251-2.764,0.838c0.252,0.838,1.844,0.293,2.764,0.46
				c1.551,5.655-0.375,14.198,0.422,20.48c1.256,0.419,2.385,0.921,4.27,0.669c0-0.502,0-1.004,0-1.508
				c-0.754-0.334-1.885-0.251-2.762-0.418c-0.756-5.57,0.123-13.402,0.207-18.385c0.922,0.459,2.471-0.043,3.434-0.21
				c-0.125-0.67,0.377-0.754,0.211-1.508c-1.256-0.376-2.932-0.334-3.645-1.256c-0.084-1.633,0.797-4.229-0.207-5.36
				c-0.17,0.209-0.547,0.125-1.299,0.209C242.477,107.101,243.734,110.494,242.895,111.666z M240.551,114.43
				C240.256,114.557,240.551,114.682,240.551,114.43c0.168,0.043,0.209-0.083,0.209-0.209c1.131,0.252,0.252-0.628,0,0
				C240.592,114.179,240.551,114.305,240.551,114.43z M242.686,115.52c0.379-1.09-0.92-1.802-1.297-0.88
				C241.891,114.891,241.848,115.645,242.686,115.52z M241.848,132.605c0,0.127,0,0.252,0.211,0.211
				c-0.043-0.629,1.045-2.053,0.209-2.137c-0.293,0.67-0.336,1.508-0.879,1.926C241.557,132.605,241.682,132.605,241.848,132.605z
				 M242.268,115.938c-0.084,0.419-1.004,0-0.67,0.838C242.1,116.9,242.812,116.146,242.268,115.938z M242.686,108.441
				c-0.627,0.083-0.838,0.586-1.088,1.089C242.352,109.53,242.393,108.902,242.686,108.441z M242.059,119.373
				c-0.127-1.09,1.467-1.551,0.627-2.598c-0.293,0.586-0.377,1.34-1.088,1.508C241.598,118.828,241.723,119.163,242.059,119.373z
				 M242.268,126.198c0,0.712-0.92,1.634-0.209,2.345C241.807,127.664,243.439,126.66,242.268,126.198z M242.268,134.742
				c0.084,0.67-0.67,0.502-0.42,1.299C242.225,135.998,243.146,134.7,242.268,134.742z M242.477,119.373
				c-0.125,0.502-1.129,1.256-0.418,1.926C241.807,120.419,243.064,119.875,242.477,119.373z M242.268,128.754
				c-0.168,0.46-0.795,1.465-0.209,1.926C242.812,130.471,242.854,129.256,242.268,128.754z M242.477,123.435
				c-0.125,0.669-1.088,1.591-0.418,2.345C242.352,125.277,243.146,124.188,242.477,123.435z M242.477,121.299
				c-0.125,0.586-0.963,1.591-0.418,2.136C242.1,122.764,243.189,122.01,242.477,121.299z M242.268,133.025
				c0.125,0.377-0.629,0.879,0,1.088C242.143,133.736,242.895,133.234,242.268,133.025z M242.059,110.828
				c0.502,0.293,0.627-0.754,0.209-0.67c0,0.126-0.043,0.251-0.209,0.209C242.059,110.536,242.059,110.662,242.059,110.828z
				 M243.104,135.371c0.043,0.418-0.25,0.502-0.209,0.879C243.691,136.711,243.859,135.161,243.104,135.371z M244.824,134.532
				c-0.336,0.419-0.713,0.88-0.84,1.509C244.572,135.998,245.324,134.951,244.824,134.532z M245.912,115.729c0.25,0,0.543,0,0.836,0
				c-0.084-0.67,0.293-0.838,0.42-1.299c-0.713,0.127-0.713,0.629-1.508,0.21C245.617,115.143,245.701,115.477,245.912,115.729z
				 M247.377,135.161c0-0.922-1.508-0.629-1.465,0.21C246.623,135.537,246.707,135.076,247.377,135.161z"/>
			<path d="M261.195,135.998c-1.088,0.377-3.432,0.88-4.773,0.629c-3.182-0.712-4.564-7.707-4.062-12.857
				c-0.461-0.502-2.053,0.084-2.553-0.419c-0.336-0.964-0.127-2.471-0.42-3.519c1.256-1.089,2.555-2.219,3.854-3.308
				c0.92,1.466,4.312,0.042,6.238,0.628c0.965,4.146-0.67,9.465,0.838,13.066c1.717-1.633,1.299-5.276,1.928-7.915
				c1.256-1.089,3.057-1.759,5.193-1.005C267.939,128.041,265.93,134.281,261.195,135.998z M252.191,118.576
				c-1.129,0.252-1.758,0.838-1.967,1.885C250.936,120.629,252.402,120,252.191,118.576z M252.191,120.251
				c-0.543-0.042-0.711,0.335-1.129,0.42c0.125,0.795-0.043,1.339-0.377,1.633C251.605,122.053,252.191,121.466,252.191,120.251z
				 M253.449,122.514c-0.043-0.67,0.586-0.713,0.418-1.467c-1.381-0.209-1.885,0.419-2.135,1.257
				C252.359,122.807,252.486,122.555,253.449,122.514z M252.988,111.582c0.502-3.476,3.643-6.24,7.328-5.235
				c1.174,3.602-0.168,8.418-4.271,7.456C254.705,113.551,254.539,112.084,252.988,111.582z M265.469,122.136
				c-0.965,3.728-0.209,9.968-5.99,9.717c0.586-1.006-0.459-1.634-0.67-2.723c-0.627-3.392,0.922-7.957-0.209-11.14
				c-1.76-0.461-5.863-1.131-5.359,1.842c0.418,0.754,2.387,0.085,2.805,0.839c1.047,4.899-0.922,12.773,3.184,14.7
				c3.811-0.462,6.533-3.561,7.328-7.665C266.85,126.408,267.729,122.681,265.469,122.136z M253.24,127.916
				c1.172-0.67,1.801-1.885,2.387-3.1c-0.965-0.209-0.756,0.712-1.508,0.628c0.42-0.712,1.676-1.466,1.256-2.304
				c-1.047,0.336-1.717,1.09-1.926,2.304c0,0.335,0.627,0.084,0.67,0.377C253.658,126.365,253.113,126.826,253.24,127.916z
				 M253.867,131.225c0.713-1.006,2.639-1.634,1.76-3.519c-0.545-0.292-0.713,0.837-0.879,0.21c0.041-0.713,0.879-0.67,0.879-1.467
				c-1.006,0.503-2.262,1.844-1.969,2.933c0.293-0.378,0.545-0.712,1.09-0.839C254.328,129.13,252.695,130.345,253.867,131.225z
				 M253.658,123.602c1.299-0.125,1.465-1.298,1.717-2.303c-0.252-0.252-0.754-0.252-1.256-0.252
				C254.328,122.304,253.574,122.471,253.658,123.602z M255.795,130.596c-1.133-0.754-2.18,1.257-1.467,2.303
				C255.375,132.689,255.668,131.727,255.795,130.596z M254.748,111.122c0.418-0.377,1.131-1.675,0-1.843
				C254.328,109.488,253.951,110.996,254.748,111.122z M257.135,134.322c-0.629-0.586-0.504-1.842-1.76-1.842
				c0.041,0.502-0.293,0.629-0.418,1.047c0.293,0.461,0.67-0.418,0.838,0.168c-0.295,0.293-0.295,1.381,0,1.676
				C256.631,135.371,257.008,134.993,257.135,134.322z M255.166,111.959c0.629-0.042,1.047-0.251,0.879-1.005
				C255.332,110.912,255.291,111.499,255.166,111.959z M257.135,111.582c-0.965-0.125-1.09,0.586-1.09,1.382
				C256.967,113.09,257.008,112.294,257.135,111.582z M259.479,110.117c0.086-1.089,0.965-2.053,0.42-3.142
				C255.584,104.547,254.871,112.88,259.479,110.117z M258.809,111.331c-1.045-0.083-1.004,0.795-1.256,1.466
				C258.641,112.964,258.432,111.875,258.809,111.331z M261.867,130.387c0.627,0.125,0.586-0.503,0.795-0.796
				C262.033,129.465,261.699,129.758,261.867,130.387z M262.494,127.496c1.299-0.082,1.508-1.172,1.676-2.261
				C263.123,124.732,262.453,126.24,262.494,127.496z M262.912,124.816c0.924-0.041,1.383-0.503,1.258-1.466
				c-0.041-0.21-0.209-0.293-0.377-0.378C263.207,123.309,262.746,123.77,262.912,124.816z"/>
			<path d="M278.91,116.859c1.09,0.461,1.549,1.549,1.633,3.058c3.016,2.261,2.262,9.507,0.922,13.065
				c-2.219,1.34-4.188,3.687-6.994,3.729c-3.057-0.461-4.438-2.598-6.072-4.439c-1.633-4.691-0.293-10.345,2.094-13.066
				c1.592-0.713,2.807-1.844,4.439-2.555C276.021,116.524,277.57,116.691,278.91,116.859z M268.398,125.277
				c-0.293,6.156,2.387,11.643,8.627,9.799c3.309-4.145,4.816-15.662-1.885-17.254C271.33,118.743,269.738,121.885,268.398,125.277z
				 M273.508,120.838c5.527-0.629,5.15,8.753,2.346,11.685C268.189,134.49,269.654,122.764,273.508,120.838z M271.664,125.528
				c0.086,0.545-0.418,0.503-0.25,1.132C272.125,127.036,272.041,125.486,271.664,125.528z M271.664,127.162
				c-0.209,0.252-0.293,0.586-0.25,1.131C272.168,128.67,272.545,126.952,271.664,127.162z M271.873,130.638
				c0.588,0.042,1.008-0.126,1.174-0.461c-0.922,0.378-0.084-1.005-0.67-0.921c0-0.252,0-0.502,0-0.713
				c-0.588-0.041-0.754,0.336-0.963,0.713c0.67,0,0.502-0.419,0.963,0C272.209,129.717,271.789,129.926,271.873,130.638z
				 M272.125,123.895c0.209,0.419-0.711,0.754,0,0.922C272.209,124.648,272.713,123.895,272.125,123.895z M274.221,121.76
				c-1.844,3.098-2.096,7.831,1.422,9.799C277.15,128.754,278.533,122.555,274.221,121.76z M273.299,131.559
				c0.168-0.041,0.459,0,0.459-0.209C273.59,131.392,273.299,131.35,273.299,131.559z M277.947,118.283
				c0.545,0.293,1.047,0.67,1.424,0C278.951,118.324,278.197,117.613,277.947,118.283z M279.371,119.205
				c-0.336,0.795,0.502,1.633,0.922,0.921C279.832,120,280.209,118.953,279.371,119.205z M280.754,131.35
				c-0.84,0.042-1.676,0.963-1.172,1.633C280.375,132.816,280.67,132.188,280.754,131.35z M281.465,130.387
				c-0.043-0.335,0.084-0.838-0.252-0.922c-0.125,0.796-1.465,0.377-1.381,1.424C280.67,131.015,280.963,130.596,281.465,130.387z
				 M281.213,122.262c0.17-0.879-0.459-0.921-1.172-0.963c0,0.334,0,0.628,0,0.963C280.459,122.262,280.838,122.262,281.213,122.262
				z M281.926,128.084c-0.879-0.043-1.885-0.168-1.633,0.92C281.34,129.214,281.758,128.754,281.926,128.084z M281.465,123.895
				c-0.043-0.46,0.25-0.544,0.209-0.963c-0.67-0.334-1.592-0.251-1.381,0.963C280.67,123.895,281.088,123.895,281.465,123.895z
				 M280.543,125.528c0.545,0.293,0.963-0.712,1.131,0c-0.082,0.88-1.465,0.503-1.381,1.634c0.377,0.377,0.795-0.21,1.633,0
				c0-0.964,0-1.885,0-2.807c-0.586-0.042-1.131-0.042-1.383,0.21C280.543,124.9,280.543,125.193,280.543,125.528z"/>
			<path d="M292.646,115.812c3.852-0.502,6.867,1.004,9.172,2.764c2.555,4.188,1.717,11.769,2.764,17.465
				c-1.424,0.628-3.143,0.041-5.068,0.67c-0.879-0.922-1.508-1.969-2.512-2.765c-0.336-0.921,0.502-0.712,0.461-1.382
				c0.502-0.461-0.461-1.633-0.461-1.842c0-0.252,0.545-0.797,0.461-1.341c-0.377-2.597,0.543-7.958-2.766-9.214
				c-4.396,2.764-0.92,10.26-1.842,15.621c-1.676,0.628-4.857,0-5.947-1.382c-0.168-4.942-0.334-9.632-1.172-12.857
				c-1.006-0.587-1.383-1.801-3.225-1.591c-0.672-1.131-0.084-2.053-0.211-3.686c0.965-0.503,1.801-1.09,2.305-2.053
				C286.154,116.775,290.385,113.886,292.646,115.812z M283.223,117.403c0.043-0.796,1.803-1.13,1.131-1.801
				c-0.168,0.503-1.006,0.335-1.381,0.671C283.139,116.607,282.721,117.487,283.223,117.403z M284.605,117.654
				c0.125,0.713-0.588,0.587-0.713,1.131c0.963,0.336,1.424-1.926,0.461-2.051c0.127,0.963-1.717,1.13-1.131,1.842
				C283.727,118.283,283.893,117.697,284.605,117.654z M286.197,118.785c-0.713,0-1.592-0.083-1.592,0.712
				C285.025,120.251,286.447,119.959,286.197,118.785z M288.961,118.785c0.293,1.341,0.293,2.975,0.209,4.607
				c1.34,3.728-0.125,8.92,1.844,11.936c2.721-0.209,0.879-4.648,0.92-6.408c0-2.01,0-4.02,0-5.988
				c0.504-0.963,0.504-2.429,1.174-3.225c0.92,0,1.172-0.629,2.051-0.67c6.953,0.922,4.816,11.224,5.529,16.752
				c1.34-0.126,1.799,0.042,2.723-0.67c-1.047-6.953,1.59-19.391-8.922-18.176c-0.754,0.544-2.094,1.633-2.555,1.633
				c-0.125-1.047-0.754-1.969-0.209-2.513c-2.596-0.126-4.188,0.21-6.449,0c0.461,0.461,0.418,1.424,0.711,2.052
				C287.369,117.99,288.164,118.367,288.961,118.785z M287.578,119.037c-0.209,0-0.461,0-0.67,0c0,0.67-1.383,1.382-0.252,1.843
				C286.699,120,287.873,120.209,287.578,119.037z M288.5,119.959c-0.922,0.46-1.926,0.795-1.844,2.303
				C287.955,122.095,288.082,120.922,288.5,119.959z M288.5,121.801c-0.838,0.209-2.219,1.131-1.383,2.262
				C287.83,123.518,288.457,122.973,288.5,121.801z M287.117,125.696c0.965,0,2.012-1.718,1.174-2.095
				c-0.209,0.42-0.418,0.797-1.174,0.712C287.117,124.775,287.117,125.235,287.117,125.696z M288.961,128.46
				c-0.127-0.503,0.418-1.8-0.461-1.634c-0.293,1.048-0.879,1.885-1.383,2.765C288.291,130.345,287.873,128.418,288.961,128.46z
				 M288.5,125.444c-0.293,0.503-1.508,1.257-0.67,2.095C287.746,126.701,289.254,126.198,288.5,125.444z M289.42,130.512
				c-0.334-0.418-0.375-1.13-0.711-1.592c-0.166,0.922-2.01,2.012-0.67,2.975C288.5,131.434,288.543,130.512,289.42,130.512z
				 M288.961,131.434c-0.754,0.502-1.34,1.089-1.131,2.513C288.584,133.779,290.09,132.02,288.961,131.434z M289.629,133.485
				c-0.711-0.041-1.086,0.294-1.129,0.922C289.297,134.49,289.842,134.322,289.629,133.485z M297.002,120.88
				c0-0.167,0-0.335,0-0.461c-0.127,0-0.336,0-0.461,0c0,0.126,0,0.294,0,0.461C296.666,120.88,296.875,120.88,297.002,120.88z
				 M297.922,122.932c0.127-0.293,0.209-0.502,0.461-0.67c-0.168-0.586-0.334-1.089-0.92-1.172c0,0.293-0.043,0.543-0.461,0.46
				C297.17,122.136,297.631,122.471,297.922,122.932z M299.514,124.523c-0.291,0-0.502-0.084-0.67-0.21
				c-0.377,0.629-1.131,0.922-0.922,2.052C298.51,126.617,299.723,125.821,299.514,124.523z M297.922,132.816
				c0.127,0,0.293,0,0.461,0c-0.334,0.25-0.252,1.004-0.252,1.591c0.672-0.126,0.965-0.544,1.635-0.671
				c0.209-0.879-0.168-0.963,0.209-1.633c-0.67-0.041-0.67,0.502-1.381,0.461c0.377-0.629,1.758-1.173,1.172-2.053
				c-0.252,0-0.461,0-0.713,0c0-0.251,0.295-0.167,0.461-0.251c0.377-0.293,0.209-1.173,0.252-1.801
				c-1.299-0.126-2.512,2.178-1.383,2.974C298.426,132.104,297.881,132.104,297.922,132.816z M298.594,122.932
				c-0.42,0.377-0.672,0.838-0.672,1.592C298.51,124.481,299.223,123.393,298.594,122.932z M299.766,126.365
				c-1.424-0.125-1.885,1.928-1.635,2.765C298.51,128.084,300.184,128.25,299.766,126.365z M299.766,135.119
				c-0.043-0.377,0.084-0.88-0.252-0.922c-0.082,0.335-0.711,0.168-0.461,0.922C299.305,135.119,299.514,135.119,299.766,135.119z"
				/>
			<path d="M308.309,127.664c1.172-0.334,1.549-1.424,2.764-1.675c0.545,2.345,1.465,4.313,3.602,5.067
				c1.633-0.502,1.885-2.346,2.305-4.021c-0.838-1.634-2.639-2.304-3.812-3.602c-2.68,1.675-5.193,3.518-7.58,5.485
				c0-0.92-1.047-0.754-1.047-1.674c3.016-3.603,5.947-7.287,9.506-10.346c1.049,0.42,1.969,0.964,2.305,2.095
				c1.633,1.424,4.02,2.052,4.857,4.229c0.041,0.377,1.383,3.1,1.258,4.859c-0.629,1.34-0.838,3.098-1.258,4.648
				c-1.131,1.885-3.684,2.387-5.275,3.811c-4.441,0.796-6.869-1.382-8.67-3.811C307.303,130.723,308.477,129.884,308.309,127.664z
				 M305.586,127.246c2.973-1.09,4.312-3.854,6.533-5.696c1.844,1.801,4.146,3.142,5.486,5.486c0.168,1.968-0.838,2.806-1.465,4.021
				c-3.225,1.549-4.775-1.927-5.906-3.811c-0.041,0.377-0.377,0.46-0.836,0.418c-0.756,1.718,0.92,2.513,1.256,3.812
				c1.969,2.344,7.244,2.512,8.668-0.42c0.168-1.383,0.797-2.262,0.629-4.021c-0.629-4.397-5.863-4.146-6.576-8.46
				C310.445,121.131,307.764,123.938,305.586,127.246C305.293,127.371,305.586,127.496,305.586,127.246z M309.607,133.988
				c0.209-0.586,1.047-2.807-0.209-2.932c-0.209,0.502-0.295,1.131-0.209,1.885c-0.379,0.041-0.379-0.209-0.672-0.209
				c0.168-1.424,0.336-1.76,0.461-2.975c-0.879,0.461-0.922,2.305-0.461,2.975C308.518,133.527,308.854,133.946,309.607,133.988z
				 M312.119,135.705c-0.545-0.712,0.922-2.555-0.418-2.764c-0.211,0.544-0.084,1.466-0.629,1.676
				c0.252,0.041,0.502,0.083,0.418,0.418c-1.549-0.042-0.418-1.633-0.418-2.513c-0.209,0-0.418,0-0.627,0
				c-0.127,0.754-0.252,1.591-0.42,2.304C310.527,135.328,311.324,135.537,312.119,135.705z M311.91,123.644
				c0-0.209,0-0.419,0-0.628c-0.209,0-0.42,0-0.629,0c0,0.293-0.082,0.461-0.209,0.628
				C311.365,123.644,311.617,123.644,311.91,123.644z M313.375,135.915c-0.125-1.048,0.336-1.383,0.211-2.347
				c-0.252,0-0.545,0-0.84,0c-0.082,0.713-0.543,1.844-0.209,2.347C312.832,135.915,313.125,135.915,313.375,135.915z
				 M315.094,135.454c-0.797,0.209-0.295-0.964-0.42-1.466c-0.209,0-0.42,0-0.629,0c0,0.879-0.418,1.173,0,1.927
				C314.424,135.789,314.883,135.789,315.094,135.454z M315.512,118.576c-0.461-0.125-0.67-0.586-1.047-0.209
				C314.254,119.163,315.471,119.205,315.512,118.576z M315.932,119.414c-0.42,0-0.838,0-1.258,0c0,0.168,0,0.293,0,0.418
				C315.094,119.707,316.141,120.209,315.932,119.414z M316.768,120.713c0.168-0.796-1.59-0.545-1.465,0
				C315.973,121.257,316.055,120.168,316.768,120.713z M316.559,133.779c-1.131-0.126-1.465,0.879-1.047,1.675
				C316.391,135.454,316.727,134.867,316.559,133.779z M318.861,121.55c-0.293-0.837-2.135-0.126-2.721-0.628
				c-0.043,0.502,0.334,0.628,0.418,1.047C317.689,121.717,318.568,122.304,318.861,121.55z M317.605,134.407
				c0.168-0.461,0.713-0.544,0.629-1.257c-0.502-0.084-0.461,0.377-1.047,0.209C317.271,133.779,316.895,134.617,317.605,134.407z
				 M319.951,122.387c-0.545-0.041-1.844-0.418-2.137,0.211C318.275,122.932,319.742,122.932,319.951,122.387z M320.16,123.435
				c-0.418,0.083-1.299-0.294-1.047,0.419C319.615,123.895,319.951,123.77,320.16,123.435z M319.742,133.568
				c0.25-0.502,0.754-0.752,0.627-1.674c-0.502-0.084-0.879-0.418-1.256,0C319.574,132.48,319.615,133.066,319.742,133.568z
				 M320.998,131.477c0-0.504,0.377-0.63,0.209-1.3c-0.754,0.21-1.676,0.168-1.465,1.3
				C320.16,131.477,320.578,131.477,320.998,131.477z M319.742,124.481c0.25,0.21,0.545,0.294,1.045,0.21
				C321.123,124.062,319.699,124.146,319.742,124.481z M320.998,126.408c0-0.377,0-0.712,0-1.089c-0.545,0-1.047,0-1.047,0.46
				C320.328,125.947,320.203,126.617,320.998,126.408z M320.787,123.854c0-0.126,0-0.294,0-0.419c-0.125,0-0.291,0-0.418,0
				c0,0.125,0,0.293,0,0.419C320.496,123.854,320.662,123.854,320.787,123.854z M321.207,128.711 M321.416,127.664"/>
			<path d="M326.818,134.03c0-1.005,0.754-2.43,2.471-2.43c1.383,0,2.471,0.922,2.471,2.346c0,1.382-0.963,2.555-2.512,2.555
				C327.572,136.501,326.818,135.161,326.818,134.03z M340.764,134.03c0-1.005,0.754-2.43,2.471-2.43
				c1.383,0,2.471,0.922,2.471,2.346c0,1.382-0.963,2.555-2.512,2.555C341.518,136.501,340.764,135.161,340.764,134.03z
				 M354.711,134.03c0-1.005,0.752-2.43,2.469-2.43c1.383,0,2.473,0.922,2.473,2.346c0,1.382-0.965,2.555-2.512,2.555
				C355.463,136.501,354.711,135.161,354.711,134.03z"/>
		</g>
	</g>
</g>
</svg>
