<?xml version="1.0" encoding="utf-8"?>
<!-- Generator: Adobe Illustrator 15.0.2, SVG Export Plug-In . SVG Version: 6.00 Build 0)  -->
<!DOCTYPE svg PUBLIC "-//W3C//DTD SVG 1.1//EN" "http://www.w3.org/Graphics/SVG/1.1/DTD/svg11.dtd">
<svg version="1.1" id="Layer_1" xmlns="http://www.w3.org/2000/svg" xmlns:xlink="http://www.w3.org/1999/xlink" x="0px" y="0px"
	 width="400px" height="225px" viewBox="0 0 400 225" enable-background="new 0 0 400 225" xml:space="preserve">
<g>
	<path d="M213.527,133.989c28.67-5.9,40-45.76,26.861-74.277c-0.379-0.822-3.697-1.008-6.725-1.344
		c9.078,6.555,5.043,20.172,0.336,27.398c5.549-15.127-2.689-26.391-3.529-27.23c-1.178-0.506-2.354-0.338-5.211,0.336
		c5.545,1.176,5.211,9.582,4.033,13.279c0.504-7.564-4.369-11.432-5.715-12.104c-0.336-0.168-1.85,0.338-4.539,2.018
		c4.875-1.346,7.143,5.66,7.229,12.102c0.168,12.777-21.516,34.799-34.461,25.385c-1.551-1.127-2.562-4.207-2.354-6.725
		c0.168-2.016,1.705-5.174,4.203-6.891c2.689-1.852,5.557,0.023,10.59,3.193c4.537,2.857,8.059,0.568,9.57-0.609
		c1.252-0.975,3.035-2.631,3.879-3.762c0.947-1.271,0.928-2.916,0.928-2.916c-0.84-6.221-4.795-11.877-9.84-15.744
		c0,0-0.166,1.682-2.35,3.363c-2.186,1.682-3.027,1.178-2.691-1.85c0.205-1.846,2.354-9.582,4.203-12.439l-4.707-2.018
		c-6.725,8.572-3.195,17.148-3.025,17.988c0.168,0.838,0.564,1.709,0.705,2.555c0.051,0.303-0.984-0.008-2.051-0.539
		c-1.217-0.605-7.992-5.279-12.607-9.414c0,0-0.146,3.623,0.525,5.303c1.84,1.42,9.896,7.643,10.232,8.146s-0.168,2.354-0.84,3.193
		c-0.672,0.842-0.553,0.432-2.857,1.01c-4.74,1.184-8.811,3.678-11.809,7.648c-7.727-15.135-3.494-37.789,11.35-41.613
		c-0.818-0.816-1.986-0.816-3.623-1.166c-10.982,1.752-16.824,19.979-17.641,26.988c-2.922-14.254,5.373-22.549,9.58-25.002
		c-0.467-0.117-2.57-0.119-4.322,0.467c-11.1,6.893-11.566,21.146-10.633,26.871c-3.855-7.828,1.168-19.16,3.738-22.314
		c0,0-2.219,0.816-3.387,1.869c-17.332,25.008,3.232,43.014,9.971,46.766c-0.158,1.08-0.293,2.188-0.371,3.355
		c-0.537,7.951,4.08,17.064,11.342,23.004c-3.789-0.613-9.145-3.115-13.816-10.268c0,0-1.285-0.701-0.934,0.232
		c0.35,0.936,3.271,16.24-4.674,23.834c0.234-1.869,0.818-13.902-5.607-21.146c-2.453-0.117-3.738,0-4.557,0.117
		c2.688,1.285,6.543,7.594,6.66,9.23c-2.455-5.258-7.596-8.764-8.062-8.881c-1.752,0.234-4.205,1.17-5.023,1.754
		c2.92,0.467,10.047,5.256,11.684,8.996c-2.453-1.986-7.828-6.426-12.852-7.828c-1.285,0.584-3.623,2.57-4.324,3.855
		c6.426,0.35,21.848,7.652,16.59,24.652c0,0.584,0.537,1.404,0.936,0.584c3.096-6.367,16.475-15.307,14.312-24.244
		c1,1.111,9.861,7.227,17.959,3.92c1.951,0.723,3.986,1.223,6.088,1.439c0.182,0.018,0.363,0.027,0.545,0.043
		c-2.912,2.789-6.654,8.199-7.242,9.611c-0.512,1.232,0.445,1.672,1.123,2.111c0.555,0.359,11.295,7.143,12.781,10.039
		c0.91,1.775,0.91,2.932,0.467,3.973c-1.01,2.381-10.514,12.268-19.746,3.738c-0.584,1.053-0.467,3.389-0.232,5.141
		c3.271,2.104,9.814,2.221,12.15,1.402c-3.154,1.869-9.463,2.221-11.801,0.701c0,1.4,1.285,3.738,1.52,4.322
		c3.738,0.584,9.389-0.246,11.568-2.102c-0.818,0.934-6.475,3.73-10.633,3.736c0.699,0.936,1.168,1.988,3.271,1.988
		s13.234,0.049,16.213-7.242c3.041-7.449,5.576-11.225,6.438-12.684c0.846-1.43,2.656-3.17,2.846-3.963
		c0.146-0.613-0.293-0.732-0.701-0.586c-1.428,0.518-5.168,1.342-7.855-1.229c-2.686-2.572-9.348-8.881-10.279-9.582
		C203.904,141.132,210.162,136.413,213.527,133.989z"/>
	<path fill="#FFFFFF" d="M207.609,71.981c0,0,0.744,3.184,2.855,3.363c-0.672,0.336-1.217,0.48-1.217,0.48
		c-2.059-0.699-3.184-2.805-3.184-2.805C207.186,72.624,207.609,71.981,207.609,71.981z"/>
</g>
</svg>
