<?xml version="1.0" encoding="utf-8"?>
<!-- Generator: Adobe Illustrator 15.0.2, SVG Export Plug-In . SVG Version: 6.00 Build 0)  -->
<!DOCTYPE svg PUBLIC "-//W3C//DTD SVG 1.1//EN" "http://www.w3.org/Graphics/SVG/1.1/DTD/svg11.dtd">
<svg version="1.1" id="Layer_1" xmlns="http://www.w3.org/2000/svg" xmlns:xlink="http://www.w3.org/1999/xlink" x="0px" y="0px"
	 width="400px" height="225px" viewBox="0 0 400 225" enable-background="new 0 0 400 225" xml:space="preserve">
<g>
	<path fill="#F26722" d="M176.808,133.658c6.039,6.287,11.715,11.588,14.697,14.369c-0.961-3.699-3.252-10.629-3.252-11.227
		c8.584,2.096,38.789,3.893,54.37-13.021c9.514-10.33,4.895-22.86-4.293-29.638c-21.302-15.717-58.481-13.01-74.401,1.347
		c-15.104,13.621-5.594,26.957,0.479,31.134C170.478,130.801,173.786,132.525,176.808,133.658z"/>
	<g>
		<path fill="#FFFFFF" d="M176.873,114.471c-0.467,0.27-1.674,0.648-3.023,0.648c-2.396,0-3.674-1.477-3.674-3.871
			c0-2.611,1.332-5.852,4.896-5.852c1.352,0,2.684,0.667,2.684,2.179c0,2.971-4.123,3.619-5.564,3.745
			c0,1.296,0.541,2.215,2.305,2.215c0.738,0,1.801-0.324,2.629-0.793L176.873,114.471z M174.748,106.873
			c-1.781,0-2.395,1.854-2.557,3.187c1.766-0.306,3.656-0.81,3.656-2.25C175.848,107.323,175.523,106.873,174.748,106.873z"/>
		<path fill="#FFFFFF" d="M183.912,101.093h3.365l-1.08,12.37h1.297l-0.125,1.477h-2.973c0.092-1.099,0.361-2.755,0.613-4.142
			h-0.037c-0.539,1.836-1.746,4.321-3.689,4.321c-1.783,0-2.576-1.44-2.576-3.529c0-3.061,1.676-6.194,5.061-6.194
			c0.432,0,0.811,0.054,1.26,0.162l0.27-2.989h-1.512L183.912,101.093z M181.57,113.318c1.17,0,3.043-2.773,3.332-6.23
			c-0.254-0.108-0.541-0.216-0.973-0.216c-2.504,0-3.314,2.593-3.314,4.717C180.615,112.526,180.904,113.318,181.57,113.318z"/>
		<path fill="#FFFFFF" d="M189.273,105.576h3.367l-0.648,4.447c-0.145,0.99-0.234,1.657-0.234,2.25c0,0.63,0.252,1.081,0.758,1.081
			c1.133,0,3.041-2.809,3.689-7.778h1.855c-0.18,1.008-0.324,2.088-0.414,3.133l-0.396,4.754h1.279l-0.127,1.477h-3.043
			c0.072-1.171,0.359-2.719,0.613-4.07h-0.037c-0.701,2.089-1.908,4.177-4.033,4.177c-1.656,0-2.053-1.278-2.053-2.358
			c0-0.792,0.145-1.981,0.234-2.737l0.359-2.899h-1.295L189.273,105.576z"/>
		<path fill="#FFFFFF" d="M206.25,114.543c-0.648,0.324-1.566,0.576-2.414,0.576c-2.646,0-3.996-1.513-3.996-4.159
			c0-4.177,2.43-5.564,4.861-5.564c1.045,0,1.729,0.198,2.27,0.36l-0.271,2.521h-1.584l0.055-1.296
			c-0.182-0.072-0.379-0.108-0.666-0.108c-1.838,0-2.648,1.765-2.648,3.745c0,1.71,0.613,2.917,2.342,2.917
			c0.773,0,1.602-0.343,2.215-0.667L206.25,114.543z"/>
		<path fill="#FFFFFF" d="M216.33,114.939h-2.953c0.072-1.009,0.234-2.233,0.594-4.142h-0.053c-0.559,1.962-1.531,4.249-3.746,4.249
			c-1.943,0-2.467-1.639-2.467-3.493c0-1.855,0.811-6.158,5.15-6.158c0.883,0,1.621,0.198,2.34,0.414h0.756
			c-0.09,0.342-0.252,1.531-0.305,2.251l-0.469,5.402h1.279L216.33,114.939z M210.568,113.354c1.729,0,3.312-4.861,3.312-6.284
			c-0.27-0.09-0.684-0.198-1.17-0.198c-2.467,0-3.098,3.187-3.098,4.735C209.613,112.634,209.902,113.354,210.568,113.354z"/>
		<path fill="#FFFFFF" d="M218.182,105.576h1.35l0.199-2.161l1.908-0.126l-0.197,2.287h2.592l-0.125,1.477h-2.594l-0.27,3.025
			c-0.055,0.594-0.18,1.656-0.18,2.358c0,0.594,0.162,1.027,0.863,1.027c0.594,0,1.297-0.198,1.801-0.486l-0.145,1.602
			c-0.559,0.253-1.277,0.469-2.088,0.469c-1.963,0-2.342-1.08-2.342-2.358c0-0.234,0.092-1.243,0.182-2.413l0.27-3.223h-1.35
			L218.182,105.576z"/>
		<path fill="#FFFFFF" d="M231.197,114.471c-0.467,0.27-1.674,0.648-3.023,0.648c-2.396,0-3.674-1.477-3.674-3.871
			c0-2.611,1.332-5.852,4.896-5.852c1.352,0,2.684,0.667,2.684,2.179c0,2.971-4.123,3.619-5.564,3.745
			c0,1.296,0.541,2.215,2.305,2.215c0.738,0,1.801-0.324,2.629-0.793L231.197,114.471z M229.072,106.873
			c-1.781,0-2.395,1.854-2.557,3.187c1.766-0.306,3.656-0.81,3.656-2.25C230.172,107.323,229.848,106.873,229.072,106.873z"/>
	</g>
</g>
</svg>
