<?xml version="1.0" encoding="utf-8"?>
<!-- Generator: Adobe Illustrator 15.0.2, SVG Export Plug-In . SVG Version: 6.00 Build 0)  -->
<!DOCTYPE svg PUBLIC "-//W3C//DTD SVG 1.1//EN" "http://www.w3.org/Graphics/SVG/1.1/DTD/svg11.dtd">
<svg version="1.1" id="Layer_1" xmlns="http://www.w3.org/2000/svg" xmlns:xlink="http://www.w3.org/1999/xlink" x="0px" y="0px"
	 width="108.858px" height="60.433px" viewBox="0 0 108.858 60.433" enable-background="new 0 0 108.858 60.433"
	 xml:space="preserve">
<g>
	<path fill="#F26722" d="M87.004,51.3c-6.115,2.504-8.737,2.504-11.446,3.143c-9.149,1.732-38.789,3.893-54.37-13.021
		c-9.514-10.33-4.895-22.859,4.293-29.638c21.302-15.717,58.481-13.01,74.402,1.347c15.104,13.621,5.594,26.957-0.479,31.134
		C93.334,48.443,90.026,50.167,87.004,51.3z"/>
	<g>
		<path fill="#FFFFFF" d="M34.487,23.218h3.204l-0.684,7.886h1.242l-0.126,1.477h-3.133l0.702-7.886h-1.332L34.487,23.218z
			 M37.134,18.519c0.685,0,1.17,0.468,1.17,1.098c0,0.594-0.324,1.351-1.458,1.351c-0.883,0-1.206-0.612-1.206-1.117
			C35.64,18.951,36.251,18.519,37.134,18.519z"/>
		<path fill="#FFFFFF" d="M39.851,23.218h3.188c-0.126,1.44-0.234,2.467-0.576,3.961h0.036c0.972-3.025,2.557-4.142,4.177-4.142
			c1.477,0,1.927,1.081,1.927,2.305c0,0.648-0.072,1.351-0.144,1.909l-0.486,3.853h1.242l-0.126,1.477h-3.223
			c0.396-2.215,0.828-5.977,0.828-6.788c0-0.558-0.072-1.062-0.648-1.062c-1.656,0-3.295,3.673-3.691,6.536l-0.18,1.314h-1.854
			c0.198-1.206,0.306-2.467,0.414-3.709l0.36-4.177h-1.369L39.851,23.218z"/>
		<path fill="#FFFFFF" d="M50.921,23.218h1.297l0.018-0.306c0.198-2.611,1.206-4.249,4.016-4.249c0.485,0,1.386,0.072,1.8,0.252
			l-0.126,1.404c-0.342-0.09-0.756-0.18-1.242-0.18c-1.584,0-2.269,0.667-2.448,2.233l-0.108,0.846h2.179l-0.126,1.477h-2.161
			l-0.576,7.076c-0.18,2.323-0.485,5.456-3.961,5.456c-0.594,0-1.062-0.127-1.62-0.252l0.144-1.549
			c0.414,0.09,0.864,0.216,1.225,0.216c1.639,0,2.143-1.333,2.358-4.142l0.522-6.806h-1.314L50.921,23.218z"/>
		<path fill="#FFFFFF" d="M61.185,23.038c1.621,0,3.639,0.973,3.639,4.159c0,3.907-2.162,5.564-4.537,5.564
			c-3.062,0-3.8-2.341-3.8-4.195C56.486,25.703,57.963,23.038,61.185,23.038z M60.339,31.176c2.07,0,2.467-2.467,2.467-4.051
			c0-0.81-0.234-2.503-1.836-2.503c-2.071,0-2.467,2.377-2.467,3.962C58.503,29.718,58.827,31.176,60.339,31.176z"/>
		<path fill="#FFFFFF" d="M66.207,23.218h3.078c-0.107,1.224-0.252,2.467-0.395,3.619h0.035c0.486-1.945,1.297-3.799,3.223-3.799
			c0.342,0,0.684,0.036,0.865,0.072l-0.271,1.818c-0.143-0.036-0.342-0.09-0.539-0.09c-2.432,0-3.205,4.447-3.475,7.13l-0.055,0.611
			h-1.908c0.143-1.008,0.252-2.377,0.324-3.276l0.359-4.609H66.08L66.207,23.218z"/>
		<path fill="#FFFFFF" d="M73.875,23.218h3.188c-0.127,1.44-0.234,2.467-0.576,3.961h0.035c0.973-3.025,2.539-4.142,4.033-4.142
			c1.818,0,1.891,1.657,1.891,2.449c0,0.288-0.055,0.756-0.107,0.9h0.035c0.252-0.972,1.514-3.349,3.656-3.349
			c1.477,0,1.926,1.081,1.926,2.377c0,0.468-0.035,1.062-0.09,1.477l-0.541,4.212h1.242l-0.125,1.477h-3.223
			c0.396-2.215,0.828-6.193,0.828-6.932c0-0.414-0.09-0.918-0.648-0.918c-1.35,0-3.133,3.331-3.529,6.625l-0.145,1.225h-1.854
			l0.594-4.681c0.145-1.044,0.18-1.674,0.18-2.178c0-0.45-0.107-0.991-0.666-0.991c-1.494,0-3.205,3.673-3.602,6.536l-0.18,1.314
			h-1.854c0.197-1.206,0.305-2.467,0.414-3.709l0.359-4.177h-1.369L73.875,23.218z"/>
	</g>
	<polygon fill="#F26722" points="23.557,37.074 1.428,59.051 35.644,45.588 	"/>
</g>
</svg>
