<?xml version="1.0" encoding="utf-8"?>
<!-- Generator: Adobe Illustrator 15.0.2, SVG Export Plug-In . SVG Version: 6.00 Build 0)  -->
<!DOCTYPE svg PUBLIC "-//W3C//DTD SVG 1.1//EN" "http://www.w3.org/Graphics/SVG/1.1/DTD/svg11.dtd">
<svg version="1.1" id="Layer_1" xmlns="http://www.w3.org/2000/svg" xmlns:xlink="http://www.w3.org/1999/xlink" x="0px" y="0px"
	 width="93.788px" height="78.156px" viewBox="0 0 93.788 78.156" enable-background="new 0 0 93.788 78.156" xml:space="preserve">
<g>
	<path fill="#F26722" d="M71.992,51.543c-6.115,2.504-8.737,2.504-11.446,3.143c-9.149,1.732-38.789,3.893-54.37-13.021
		c-9.514-10.33-4.895-22.859,4.293-29.638C31.77-3.69,68.95-0.983,84.871,13.374c15.104,13.621,5.594,26.957-0.479,31.134
		C78.322,48.686,75.013,50.411,71.992,51.543z"/>
	<g>
		<path fill="#FFFFFF" d="M19.097,23.461h3.204l-0.684,7.886h1.242l-0.126,1.477h-3.133l0.702-7.886h-1.332L19.097,23.461z
			 M21.744,18.762c0.685,0,1.17,0.468,1.17,1.098c0,0.594-0.324,1.351-1.458,1.351c-0.883,0-1.206-0.612-1.206-1.117
			C20.25,19.194,20.861,18.762,21.744,18.762z"/>
		<path fill="#FFFFFF" d="M24.46,23.461h3.188c-0.126,1.44-0.234,2.467-0.576,3.961h0.036c0.972-3.025,2.557-4.142,4.177-4.142
			c1.477,0,1.927,1.081,1.927,2.305c0,0.648-0.072,1.351-0.144,1.909l-0.486,3.853h1.242l-0.126,1.477h-3.223
			c0.396-2.215,0.828-5.978,0.828-6.788c0-0.558-0.072-1.062-0.648-1.062c-1.656,0-3.295,3.673-3.691,6.536l-0.18,1.314h-1.854
			c0.198-1.207,0.306-2.467,0.414-3.709l0.36-4.177h-1.369L24.46,23.461z"/>
		<path fill="#FFFFFF" d="M37.097,31.222c0.469,0.144,1.116,0.306,1.675,0.306c0.9,0,1.765-0.378,1.765-1.351
			c0-0.612-0.343-0.864-1.045-1.098l-1.674-0.54c-0.9-0.288-2.071-0.811-2.071-2.413c0-1.404,1.045-2.845,3.836-2.845
			c1.44,0,2.448,0.396,2.772,0.54l-0.072,2.341h-1.584l0.071-1.134c-0.378-0.18-0.81-0.27-1.439-0.27
			c-1.099,0-1.675,0.504-1.675,1.152c0,0.54,0.233,0.81,1.368,1.188l1.603,0.522c0.954,0.306,1.818,0.9,1.818,2.323
			c0,1.477-1.026,3.061-3.763,3.061c-1.477,0-2.485-0.288-3.313-0.558l0.072-2.413h1.656V31.222z"/>
		<path fill="#FFFFFF" d="M43.145,35.867h1.08l0.973-10.929h-1.369l0.127-1.477h3.187c-0.162,1.26-0.288,2.359-0.522,3.799h0.036
			c0.378-1.225,1.242-3.979,3.89-3.979c1.962,0,2.322,2.107,2.322,3.457c0,3.385-1.98,6.194-5.041,6.194
			c-0.667,0-1.188-0.054-1.549-0.144l-0.252,3.079h1.314l-0.126,1.476h-4.195L43.145,35.867z M50.023,24.974
			c-1.351,0-3.025,2.647-3.583,6.176c0.324,0.126,0.864,0.198,1.53,0.198c2.125,0,2.989-2.611,2.989-4.465
			C50.959,26,50.833,24.974,50.023,24.974z"/>
		<path fill="#FFFFFF" d="M54.414,23.461h3.204l-0.684,7.886h1.242l-0.126,1.477h-3.133l0.702-7.886h-1.332L54.414,23.461z
			 M57.06,18.762c0.685,0,1.17,0.468,1.17,1.098c0,0.594-0.324,1.351-1.458,1.351c-0.883,0-1.206-0.612-1.206-1.117
			C55.566,19.194,56.177,18.762,57.06,18.762z"/>
		<path fill="#FFFFFF" d="M59.777,23.461h3.079c-0.107,1.224-0.252,2.467-0.396,3.619h0.036c0.485-1.945,1.296-3.799,3.223-3.799
			c0.342,0,0.684,0.036,0.864,0.072l-0.271,1.818c-0.144-0.036-0.342-0.09-0.54-0.09c-2.431,0-3.205,4.447-3.475,7.13l-0.055,0.612
			h-1.908c0.144-1.008,0.252-2.377,0.324-3.277l0.36-4.609h-1.369L59.777,23.461z"/>
		<path fill="#FFFFFF" d="M73.55,32.356c-0.468,0.27-1.675,0.648-3.024,0.648c-2.396,0-3.674-1.477-3.674-3.871
			c0-2.611,1.333-5.852,4.897-5.852c1.351,0,2.683,0.667,2.683,2.179c0,2.971-4.123,3.619-5.563,3.745
			c0,1.296,0.54,2.215,2.305,2.215c0.738,0,1.801-0.324,2.629-0.792L73.55,32.356z M71.425,24.758c-1.782,0-2.395,1.854-2.557,3.187
			c1.765-0.306,3.655-0.81,3.655-2.25C72.524,25.208,72.2,24.758,71.425,24.758z"/>
	</g>
	<polygon fill="#F26722" points="25.318,47.628 15.902,77.363 39.976,49.569 	"/>
</g>
</svg>
