<?xml version="1.0" encoding="utf-8"?>
<!-- Generator: Adobe Illustrator 15.0.2, SVG Export Plug-In . SVG Version: 6.00 Build 0)  -->
<!DOCTYPE svg PUBLIC "-//W3C//DTD SVG 1.1//EN" "http://www.w3.org/Graphics/SVG/1.1/DTD/svg11.dtd">
<svg version="1.1" id="Layer_1" xmlns="http://www.w3.org/2000/svg" xmlns:xlink="http://www.w3.org/1999/xlink" x="0px" y="0px"
	 width="93.333px" height="76px" viewBox="0 0 93.333 76" enable-background="new 0 0 93.333 76" xml:space="preserve">
<g>
	<path fill="#F26722" d="M71.66,51.229c0.862,7.591,2.622,20.236,2.889,23.838C71.234,69.05,60.215,54.97,60.215,54.372
		c-8.584,2.096-38.789,3.893-54.37-13.021c-9.514-10.331-4.895-22.86,4.293-29.638C31.439-4.004,68.619-1.297,84.539,13.06
		c15.104,13.621,5.594,26.957-0.479,31.134C77.99,48.372,74.682,50.097,71.66,51.229z"/>
	<g>
		<path fill="#FFFFFF" d="M9.413,23.147h3.188c-0.126,1.44-0.234,2.467-0.576,3.961h0.036c0.972-3.025,2.538-4.142,4.033-4.142
			c1.818,0,1.891,1.657,1.891,2.449c0,0.288-0.055,0.756-0.108,0.9h0.036c0.252-0.972,1.513-3.349,3.655-3.349
			c1.477,0,1.927,1.081,1.927,2.377c0,0.468-0.036,1.062-0.091,1.477l-0.54,4.213h1.242l-0.126,1.477h-3.223
			c0.396-2.215,0.828-6.194,0.828-6.932c0-0.414-0.09-0.918-0.648-0.918c-1.35,0-3.133,3.331-3.528,6.626l-0.145,1.225h-1.854
			l0.595-4.682c0.144-1.044,0.18-1.674,0.18-2.178c0-0.45-0.108-0.991-0.666-0.991c-1.495,0-3.205,3.673-3.602,6.536l-0.18,1.314
			H9.882c0.198-1.207,0.306-2.467,0.414-3.709l0.36-4.177H9.287L9.413,23.147z"/>
		<path fill="#FFFFFF" d="M30.061,22.967c1.621,0,3.638,0.973,3.638,4.159c0,3.907-2.161,5.564-4.537,5.564
			c-3.062,0-3.8-2.341-3.8-4.195C25.361,25.632,26.838,22.967,30.061,22.967z M29.215,31.106c2.07,0,2.467-2.467,2.467-4.051
			c0-0.81-0.234-2.503-1.837-2.503c-2.07,0-2.467,2.377-2.467,3.961C27.378,29.647,27.702,31.106,29.215,31.106z"/>
		<path fill="#FFFFFF" d="M35.046,23.147h1.35l0.198-2.161l1.909-0.126l-0.198,2.287h2.593l-0.126,1.477h-2.593l-0.271,3.025
			c-0.054,0.594-0.18,1.656-0.18,2.358c0,0.594,0.162,1.026,0.864,1.026c0.594,0,1.296-0.198,1.8-0.486l-0.144,1.602
			c-0.559,0.252-1.278,0.468-2.089,0.468c-1.962,0-2.341-1.08-2.341-2.358c0-0.234,0.091-1.243,0.181-2.413l0.27-3.223h-1.35
			L35.046,23.147z"/>
		<path fill="#FFFFFF" d="M41.706,23.147h3.204l-0.684,7.886h1.242l-0.126,1.477H42.21l0.702-7.886H41.58L41.706,23.147z
			 M44.353,18.448c0.685,0,1.17,0.468,1.17,1.098c0,0.594-0.324,1.351-1.458,1.351c-0.883,0-1.206-0.612-1.206-1.117
			C42.858,18.88,43.47,18.448,44.353,18.448z"/>
		<path fill="#FFFFFF" d="M46.979,23.147h3.259c-0.162,1.854-0.288,4.303-0.288,4.897c0,1.477,0.108,2.953,0.991,2.953
			c1.656,0,2.845-3.961,3.007-6.374h-1.405l0.127-1.477h3.187c0,3.241-1.135,9.543-5.275,9.543c-2.143,0-2.539-2.089-2.539-4.375
			c0-1.278,0.126-3.115,0.126-3.691h-1.314L46.979,23.147z"/>
		<path fill="#FFFFFF" d="M65.741,32.51h-2.953c0.072-1.008,0.234-2.232,0.594-4.141h-0.054c-0.559,1.962-1.53,4.249-3.745,4.249
			c-1.944,0-2.467-1.638-2.467-3.493c0-1.855,0.811-6.158,5.149-6.158c0.883,0,1.621,0.198,2.341,0.414h0.756
			c-0.09,0.342-0.252,1.531-0.306,2.251l-0.468,5.401h1.278L65.741,32.51z M59.979,30.926c1.729,0,3.312-4.861,3.312-6.284
			c-0.27-0.09-0.685-0.198-1.17-0.198c-2.467,0-3.098,3.187-3.098,4.735C59.024,30.206,59.312,30.926,59.979,30.926z"/>
		<path fill="#FFFFFF" d="M67.593,23.147h1.35l0.198-2.161l1.909-0.126l-0.198,2.287h2.593l-0.126,1.477h-2.593l-0.271,3.025
			c-0.054,0.594-0.18,1.656-0.18,2.358c0,0.594,0.162,1.026,0.864,1.026c0.594,0,1.296-0.198,1.8-0.486l-0.144,1.602
			c-0.559,0.252-1.278,0.468-2.089,0.468c-1.962,0-2.341-1.08-2.341-2.358c0-0.234,0.091-1.243,0.181-2.413l0.27-3.223h-1.35
			L67.593,23.147z"/>
		<path fill="#FFFFFF" d="M80.608,32.042c-0.468,0.27-1.675,0.648-3.024,0.648c-2.396,0-3.674-1.477-3.674-3.871
			c0-2.611,1.333-5.852,4.897-5.852c1.351,0,2.683,0.667,2.683,2.179c0,2.971-4.123,3.619-5.563,3.745
			c0,1.296,0.54,2.215,2.305,2.215c0.738,0,1.801-0.324,2.629-0.792L80.608,32.042z M78.483,24.444
			c-1.782,0-2.395,1.854-2.557,3.187c1.765-0.306,3.655-0.81,3.655-2.25C79.582,24.894,79.258,24.444,78.483,24.444z"/>
	</g>
</g>
</svg>
