<?xml version="1.0" encoding="utf-8"?>
<!-- Generator: Adobe Illustrator 15.0.2, SVG Export Plug-In . SVG Version: 6.00 Build 0)  -->
<!DOCTYPE svg PUBLIC "-//W3C//DTD SVG 1.1//EN" "http://www.w3.org/Graphics/SVG/1.1/DTD/svg11.dtd">
<svg version="1.1" id="Layer_1" xmlns="http://www.w3.org/2000/svg" xmlns:xlink="http://www.w3.org/1999/xlink" x="0px" y="0px"
	 width="93.992px" height="76.357px" viewBox="0 0 93.992 76.357" enable-background="new 0 0 93.992 76.357" xml:space="preserve">
<g>
	<path fill="#F26722" d="M22.116,51.375c-0.862,7.59-2.622,20.236-2.889,23.838c3.314-6.018,14.334-20.098,14.334-20.695
		c8.584,2.096,38.789,3.893,54.37-13.022c9.514-10.33,4.895-22.859-4.293-29.637C62.337-3.859,25.157-1.153,9.237,13.205
		C-5.866,26.826,3.644,40.161,9.716,44.338C15.786,48.516,19.095,50.241,22.116,51.375z"/>
	<g>
		<path fill="#FFFFFF" d="M10.366,36.089h1.08l0.973-10.929H11.05l0.126-1.477h3.188c-0.162,1.26-0.288,2.359-0.522,3.799h0.036
			c0.378-1.225,1.242-3.979,3.89-3.979c1.962,0,2.322,2.107,2.322,3.457c0,3.385-1.98,6.194-5.041,6.194
			c-0.667,0-1.188-0.054-1.549-0.144l-0.252,3.079h1.314l-0.126,1.476H10.24L10.366,36.089z M17.244,25.195
			c-1.351,0-3.025,2.647-3.583,6.176c0.324,0.126,0.864,0.198,1.53,0.198c2.125,0,2.989-2.611,2.989-4.465
			C18.181,26.222,18.055,25.195,17.244,25.195z"/>
		<path fill="#FFFFFF" d="M27.99,32.578c-0.468,0.27-1.675,0.648-3.025,0.648c-2.395,0-3.673-1.477-3.673-3.871
			c0-2.611,1.333-5.852,4.897-5.852c1.351,0,2.683,0.667,2.683,2.179c0,2.971-4.123,3.619-5.563,3.745
			c0,1.296,0.54,2.215,2.305,2.215c0.738,0,1.801-0.324,2.629-0.792L27.99,32.578z M25.865,24.979c-1.782,0-2.395,1.854-2.557,3.187
			c1.765-0.306,3.655-0.81,3.655-2.25C26.964,25.43,26.64,24.979,25.865,24.979z"/>
		<path fill="#FFFFFF" d="M30.004,23.683h3.079c-0.107,1.224-0.252,2.467-0.396,3.619h0.035c0.486-1.945,1.297-3.799,3.224-3.799
			c0.342,0,0.684,0.036,0.864,0.072l-0.271,1.818c-0.144-0.036-0.342-0.09-0.54-0.09c-2.431,0-3.205,4.447-3.475,7.13l-0.055,0.612
			h-1.908c0.145-1.008,0.252-2.377,0.324-3.277l0.36-4.609h-1.369L30.004,23.683z"/>
		<path fill="#FFFFFF" d="M39.095,31.443c0.469,0.144,1.116,0.306,1.675,0.306c0.9,0,1.765-0.378,1.765-1.351
			c0-0.612-0.343-0.864-1.045-1.098l-1.674-0.54c-0.9-0.288-2.071-0.811-2.071-2.413c0-1.404,1.045-2.845,3.836-2.845
			c1.44,0,2.448,0.396,2.772,0.54l-0.072,2.341h-1.584l0.071-1.134c-0.378-0.18-0.81-0.27-1.439-0.27
			c-1.099,0-1.675,0.504-1.675,1.152c0,0.54,0.233,0.81,1.368,1.188l1.603,0.522c0.954,0.306,1.818,0.9,1.818,2.323
			c0,1.477-1.026,3.061-3.763,3.061c-1.477,0-2.485-0.288-3.313-0.558l0.072-2.413h1.656V31.443z"/>
		<path fill="#FFFFFF" d="M46.169,23.683h3.367l-0.648,4.447c-0.145,0.99-0.234,1.657-0.234,2.25c0,0.63,0.252,1.081,0.757,1.081
			c1.134,0,3.042-2.809,3.69-7.778h1.854c-0.18,1.008-0.324,2.088-0.414,3.133l-0.396,4.753h1.278l-0.126,1.477h-3.043
			c0.071-1.17,0.359-2.719,0.612-4.069h-0.036c-0.702,2.089-1.909,4.177-4.033,4.177c-1.657,0-2.053-1.278-2.053-2.358
			c0-0.792,0.144-1.981,0.233-2.737l0.36-2.899h-1.296L46.169,23.683z"/>
		<path fill="#FFFFFF" d="M65.558,33.046h-2.953c0.072-1.008,0.234-2.232,0.594-4.141h-0.054c-0.559,1.962-1.53,4.249-3.745,4.249
			c-1.944,0-2.467-1.638-2.467-3.493c0-1.855,0.811-6.158,5.149-6.158c0.883,0,1.621,0.198,2.341,0.414h0.756
			c-0.09,0.342-0.252,1.531-0.306,2.251l-0.468,5.401h1.278L65.558,33.046z M59.796,31.461c1.729,0,3.312-4.861,3.312-6.284
			c-0.27-0.09-0.685-0.198-1.17-0.198c-2.467,0-3.098,3.187-3.098,4.735C58.841,30.741,59.129,31.461,59.796,31.461z"/>
		<path fill="#FFFFFF" d="M72.469,19.2h3.366l-1.08,12.37h1.297l-0.126,1.477h-2.972c0.091-1.098,0.36-2.755,0.612-4.141H73.53
			c-0.54,1.836-1.746,4.321-3.69,4.321c-1.783,0-2.575-1.44-2.575-3.529c0-3.061,1.675-6.194,5.06-6.194
			c0.432,0,0.811,0.054,1.261,0.162l0.27-2.989h-1.513L72.469,19.2z M70.128,31.425c1.17,0,3.043-2.773,3.331-6.23
			c-0.253-0.108-0.541-0.216-0.973-0.216c-2.503,0-3.313,2.593-3.313,4.717C69.173,30.633,69.461,31.425,70.128,31.425z"/>
		<path fill="#FFFFFF" d="M84.097,32.578c-0.468,0.27-1.675,0.648-3.024,0.648c-2.396,0-3.674-1.477-3.674-3.871
			c0-2.611,1.333-5.852,4.897-5.852c1.351,0,2.683,0.667,2.683,2.179c0,2.971-4.123,3.619-5.563,3.745
			c0,1.296,0.54,2.215,2.305,2.215c0.738,0,1.801-0.324,2.629-0.792L84.097,32.578z M81.972,24.979
			c-1.782,0-2.395,1.854-2.557,3.187c1.765-0.306,3.655-0.81,3.655-2.25C83.07,25.43,82.746,24.979,81.972,24.979z"/>
	</g>
</g>
</svg>
