<?xml version="1.0" encoding="utf-8"?>
<!-- Generator: Adobe Illustrator 15.0.2, SVG Export Plug-In . SVG Version: 6.00 Build 0)  -->
<!DOCTYPE svg PUBLIC "-//W3C//DTD SVG 1.1//EN" "http://www.w3.org/Graphics/SVG/1.1/DTD/svg11.dtd">
<svg version="1.1" id="Layer_1" xmlns="http://www.w3.org/2000/svg" xmlns:xlink="http://www.w3.org/1999/xlink" x="0px" y="0px"
	 width="89.379px" height="72.344px" viewBox="0 0 89.379 72.344" enable-background="new 0 0 89.379 72.344" xml:space="preserve">
<path fill="#8ECAEB" d="M78.759,63.538C70.763,35.26,56.137,13.418,44.214,13.742c-9.174,0.249-8.249,10.113-2.281,11.732
	c6.598,1.79,9.695,1.227,15.374,4.325c4.29,2.341,14.722,18.488,18.917,30.812C77.16,63.365,78.759,63.538,78.759,63.538z"/>
<path fill="#DAEFEE" d="M38.829,18.09c-1.404,3.087,1.63,5.022,5.412,6.054c3.967,1.082,8.116,1.507,9.675,1.897
	c-2.535-0.975-9.582-3.67-10.805-6.728C42.67,18.212,39.849,15.848,38.829,18.09z"/>
<path fill="#8ECAEB" d="M67.431,54.512c-2.115-3.526-6.375-6.535-8.815-3.879c-1.513,1.647-0.644,4.063,2.469,5.29
	c2.909,1.146,5.995,1.41,5.995,1.41C68.188,57.07,68.188,56.09,67.431,54.512z"/>
<path fill="#DAEFEE" d="M59.008,51.704c-0.751,0.928,0.649,3.461,5.302,3.786C60.28,53.039,60.847,49.432,59.008,51.704z"/>
<path fill="#8ECAEB" d="M37.212,4.07c-3.018-2.793-7.95-4.489-9.549-1.256c-0.992,2.005,0.52,4.081,3.851,4.387
	c3.113,0.287,6.149-0.323,6.149-0.323C38.656,6.313,38.382,5.373,37.212,4.07z"/>
<path fill="#DAEFEE" d="M28.216,3.485c-0.92,0.761,1.774,3.942,6.274,2.397C29.464,4.997,29.925,2.072,28.216,3.485z"/>
<path fill="#8ECAEB" d="M50.302,45c2.811,1.405-4.629-6.282-9.822-6.521c-2.338-0.107-4.75,1.792-3.743,3.303
	c1.762,2.643,4.67,2.668,5.96,2.31C45.673,43.265,49.489,44.594,50.302,45z"/>
<path fill="#DAEFEE" d="M38.017,41.389c0.537,1.073,1.312,1.418,2.887,1.681c1.383,0.23,1.663-0.35,3.15-0.7
	c-1.073-0.716-2.085-1.521-2.979-1.7S38.197,40.31,38.017,41.389z"/>
<path fill="#8ECAEB" d="M87.091,71.025c0.732,3.057-5.076-5.928-4.133-11.04c0.422-2.302,2.816-4.224,4.061-2.901
	c2.178,2.314,1.545,5.152,0.904,6.33C86.444,66.125,86.878,70.144,87.091,71.025z"/>
<path fill="#DAEFEE" d="M85.763,57.931c0.924,0.764,0.514,2.215-0.356,3.243c-0.907,1.072-0.949,2.809-0.593,4.312
	c-0.716-0.869-1.279-3.479-1.227-4.391C83.666,59.711,84.669,57.863,85.763,57.931z"/>
<path fill="#8ECAEB" d="M10.363,17.719c2.638-0.003-3.271-3.187-6.783-2.105c-1.694,0.521-3.161,2.19-2.143,3.115
	c1.781,1.618,3.18,1.049,4.127,0.688C7.41,18.711,9.676,17.72,10.363,17.719z"/>
<path fill="#DAEFEE" d="M2.306,18.206c0.591,0.689,1.225,0.801,2.431,0.704c1.059-0.086,1.158-0.563,2.186-1.095
	c-0.92-0.328-1.812-0.734-2.503-0.701C3.73,17.148,2.24,17.379,2.306,18.206z"/>
<path fill="#8ECAEB" d="M21.115,38.562c-1.578-0.144-3.148,1.049-2.624,2.623s2.624,2.799,4.022,1.225S23.039,38.737,21.115,38.562z
	"/>
<path fill="#DAEFEE" d="M19.459,39.85c-0.833,0.598-0.635,2.542,1.78,2.542c0.381,0,0.438-0.174-0.064-0.381
	c-0.354-0.146-0.555-0.485-0.697-1.036C20.368,40.553,20.634,39.006,19.459,39.85z"/>
<path fill="#8ECAEB" d="M68.909,16.712c-1.818-0.166-3.628,1.209-3.023,3.023s3.023,3.226,4.637,1.411
	C72.135,19.333,71.127,16.914,68.909,16.712z"/>
<path fill="#DAEFEE" d="M67.001,18.197c-0.96,0.689-0.732,2.93,2.051,2.93c0.439,0,0.506-0.2-0.073-0.438
	c-0.407-0.168-0.64-0.56-0.804-1.194C68.049,19.007,68.354,17.224,67.001,18.197z"/>
<g>
	<path fill="#8ECAEB" d="M23.948,22.2c-1.882,0.483-3.206,2.508-1.953,4.112c1.254,1.603,4.183,2.154,5.152-0.24
		C28.117,23.676,26.243,21.611,23.948,22.2z"/>
	<path fill="#DAEFEE" d="M22.603,24.814c-0.493,1.158,0.95,3.07,3.483,1.534c0.4-0.242,0.349-0.461-0.309-0.357
		c-0.464,0.071-0.892-0.157-1.391-0.644C24.003,24.974,23.298,23.181,22.603,24.814z"/>
</g>
<g>
	<path fill="#8ECAEB" d="M79.542,44.32c-1.882,0.483-3.206,2.508-1.953,4.112c1.254,1.603,4.184,2.154,5.152-0.24
		C83.711,45.796,81.837,43.731,79.542,44.32z"/>
	<path fill="#DAEFEE" d="M78.196,46.934c-0.492,1.158,0.95,3.07,3.484,1.534c0.399-0.242,0.349-0.461-0.309-0.357
		c-0.465,0.071-0.893-0.157-1.391-0.644C79.598,47.094,78.892,45.301,78.196,46.934z"/>
</g>
</svg>
