<?xml version="1.0" encoding="utf-8"?>
<!-- Generator: Adobe Illustrator 15.0.2, SVG Export Plug-In . SVG Version: 6.00 Build 0)  -->
<!DOCTYPE svg PUBLIC "-//W3C//DTD SVG 1.1//EN" "http://www.w3.org/Graphics/SVG/1.1/DTD/svg11.dtd">
<svg version="1.1" id="Layer_1" xmlns="http://www.w3.org/2000/svg" xmlns:xlink="http://www.w3.org/1999/xlink" x="0px" y="0px"
	 width="155.993px" height="126.476px" viewBox="0 0 155.993 126.476" enable-background="new 0 0 155.993 126.476"
	 xml:space="preserve">
<path fill="#8ECAEB" d="M138.125,110.946c-14.076-49.78-39.824-88.231-60.812-87.662c-16.15,0.438-14.521,17.804-4.016,20.654
	c11.616,3.151,17.067,2.16,27.065,7.614c7.553,4.121,25.916,32.548,33.301,54.243C135.312,110.643,138.125,110.946,138.125,110.946z
	"/>
<path fill="#DAEFEE" d="M67.833,30.94c-2.471,5.435,2.87,8.842,9.527,10.657c6.983,1.905,14.287,2.653,17.033,3.34
	c-4.463-1.716-16.868-6.46-19.021-11.843C74.595,31.155,69.627,26.993,67.833,30.94z"/>
<path fill="#8ECAEB" d="M118.184,95.059c-3.725-6.208-11.225-11.505-15.52-6.829c-2.664,2.9-1.133,7.153,4.346,9.312
	c5.121,2.019,10.554,2.482,10.554,2.482C119.518,99.561,119.518,97.836,118.184,95.059z"/>
<path fill="#DAEFEE" d="M103.356,90.113c-1.322,1.634,1.143,6.093,9.332,6.666C105.595,92.464,106.594,86.115,103.356,90.113z"/>
<path fill="#8ECAEB" d="M64.987,6.258c-5.312-4.917-13.996-7.903-16.81-2.211c-1.747,3.53,0.915,7.185,6.778,7.723
	c5.481,0.505,10.826-0.569,10.826-0.569C67.527,10.207,67.046,8.551,64.987,6.258z"/>
<path fill="#DAEFEE" d="M49.149,5.228c-1.621,1.339,3.124,6.94,11.045,4.221C51.347,7.89,52.157,2.741,49.149,5.228z"/>
<path fill="#8ECAEB" d="M88.03,78.313c4.947,2.474-8.148-11.06-17.292-11.48c-4.116-0.189-8.363,3.154-6.59,5.814
	c3.102,4.651,8.221,4.696,10.493,4.065C79.881,75.259,86.6,77.599,88.03,78.313z"/>
<path fill="#DAEFEE" d="M66.402,71.956c0.945,1.89,2.31,2.496,5.082,2.959c2.435,0.405,2.927-0.616,5.545-1.233
	c-1.889-1.26-3.67-2.678-5.245-2.993C70.209,70.374,66.72,70.057,66.402,71.956z"/>
<path fill="#8ECAEB" d="M152.793,124.128c1.291,5.381-8.936-10.436-7.275-19.436c0.744-4.052,4.959-7.436,7.149-5.107
	c3.832,4.074,2.718,9.07,1.593,11.144C151.657,115.502,152.418,122.577,152.793,124.128z"/>
<path fill="#DAEFEE" d="M150.456,101.077c1.627,1.344,0.904,3.898-0.627,5.709c-1.598,1.888-1.672,4.944-1.045,7.59
	c-1.259-1.529-2.25-6.125-2.158-7.729C146.764,104.211,148.532,100.957,150.456,101.077z"/>
<path fill="#8ECAEB" d="M17.721,30.287c4.645-0.005-5.759-5.609-11.941-3.707c-2.983,0.917-5.565,3.856-3.772,5.484
	c3.136,2.849,5.598,1.846,7.266,1.21C12.522,32.033,16.51,30.289,17.721,30.287z"/>
<path fill="#DAEFEE" d="M3.537,31.143c1.041,1.213,2.157,1.41,4.279,1.239c1.864-0.151,2.038-0.992,3.848-1.927
	c-1.62-0.578-3.191-1.292-4.406-1.234C6.043,29.281,3.42,29.688,3.537,31.143z"/>
<path fill="#8ECAEB" d="M36.649,66.979c-2.777-0.252-5.542,1.847-4.619,4.618s4.619,4.927,7.081,2.155
	C41.574,70.981,40.036,67.287,36.649,66.979z"/>
<path fill="#DAEFEE" d="M33.733,69.246c-1.465,1.053-1.118,4.476,3.133,4.476c0.671,0,0.771-0.307-0.113-0.671
	c-0.622-0.256-0.976-0.854-1.227-1.824C35.333,70.484,35.801,67.761,33.733,69.246z"/>
<path fill="#8ECAEB" d="M120.788,28.514c-3.201-0.292-6.388,2.128-5.324,5.323c1.064,3.194,5.324,5.678,8.162,2.484
	C126.465,33.127,124.691,28.868,120.788,28.514z"/>
<path fill="#DAEFEE" d="M117.427,31.127c-1.69,1.214-1.29,5.157,3.611,5.157c0.773,0,0.889-0.352-0.13-0.771
	c-0.718-0.296-1.126-0.985-1.415-2.103C119.272,32.554,119.811,29.415,117.427,31.127z"/>
<g>
	<path fill="#8ECAEB" d="M41.635,38.174c-3.313,0.851-5.644,4.415-3.438,7.239c2.208,2.821,7.364,3.792,9.07-0.423
		C48.974,40.773,45.675,37.138,41.635,38.174z"/>
	<path fill="#DAEFEE" d="M39.267,42.776c-0.868,2.039,1.672,5.405,6.132,2.701c0.704-0.427,0.614-0.812-0.543-0.629
		c-0.816,0.125-1.569-0.277-2.448-1.133C41.733,43.059,40.491,39.902,39.267,42.776z"/>
</g>
<g>
	<path fill="#8ECAEB" d="M139.504,77.115c-3.312,0.851-5.644,4.415-3.438,7.239c2.208,2.821,7.365,3.793,9.07-0.423
		C146.844,79.715,143.545,76.078,139.504,77.115z"/>
	<path fill="#DAEFEE" d="M137.137,81.718c-0.869,2.038,1.672,5.404,6.132,2.7c0.704-0.426,0.614-0.812-0.544-0.629
		c-0.816,0.125-1.568-0.277-2.447-1.133C139.603,81.999,138.361,78.843,137.137,81.718z"/>
</g>
</svg>
