<?xml version="1.0" encoding="utf-8"?>
<!-- Generator: Adobe Illustrator 15.0.2, SVG Export Plug-In . SVG Version: 6.00 Build 0)  -->
<!DOCTYPE svg PUBLIC "-//W3C//DTD SVG 1.1//EN" "http://www.w3.org/Graphics/SVG/1.1/DTD/svg11.dtd">
<svg version="1.1" id="Layer_1" xmlns="http://www.w3.org/2000/svg" xmlns:xlink="http://www.w3.org/1999/xlink" x="0px" y="0px"
	 width="123.454px" height="128.363px" viewBox="0 0 123.454 128.363" enable-background="new 0 0 123.454 128.363"
	 xml:space="preserve">
<path fill="#8ECAEB" d="M16.347,105.372c7.729-42.713,24.438-54.997,42.013-56.221c13.524-0.939,13.568,13.695,5.024,16.925
	c-9.445,3.572-14.079,3.185-21.986,8.55c-5.975,4.052-16.162,10.005-22.512,29.477C17.555,108.187,16.347,105.372,16.347,105.372z"
	/>
<path fill="#DAEFEE" d="M64.452,53.333c-2.661-4.245-10.65-1.441-14.998,2.384c-4.565,4.009-4.667,5.979-6.419,7.584
	c3.189-3.452,11.23-7.557,16.088-7.246C61.439,56.204,66.387,56.413,64.452,53.333z"/>
<path fill="#8ECAEB" d="M31.196,102.9c2.608-5.485,8.441-10.516,12.407-6.959c2.458,2.208,1.525,5.883-2.876,8.13
	c-4.112,2.102-8.614,2.926-8.614,2.926C30.446,106.767,30.306,105.329,31.196,102.9z"/>
<g>
	<path fill="#8ECAEB" d="M67.555,35.368c2.947-5.311,9.084-9.965,12.822-6.167c2.316,2.355,1.154,5.967-3.382,7.932
		c-4.234,1.839-8.776,2.384-8.776,2.384C66.565,39.182,66.516,37.736,67.555,35.368z"/>
	<path fill="#DAEFEE" d="M78.551,30.308c-0.031-1.767-6.187-1.586-8.55,5.031C75.656,30.354,78.605,33.582,78.551,30.308z"/>
</g>
<g>
	<path fill="#8ECAEB" d="M82.885,66.442c-4.413,1.442,8.132-8.17,15.771-7.39c3.437,0.353,6.55,3.653,4.747,5.64
		c-3.146,3.477-7.4,2.88-9.21,2.077C90.023,64.916,84.159,66.025,82.885,66.442z"/>
	<path fill="#DAEFEE" d="M101.619,63.841c-1.018,1.452-2.227,1.786-4.584,1.828c-2.069,0.034-2.351-0.873-4.45-1.708
		c1.726-0.812,3.379-1.769,4.723-1.835C98.655,62.057,101.592,62.226,101.619,63.841z"/>
</g>
<path fill="#8ECAEB" d="M108.695,50.18c-3.877,0.372,4.357-5.151,9.674-4.062c2.565,0.525,4.959,2.771,3.596,4.275
	c-2.389,2.633-4.527,1.994-5.97,1.599C113.179,51.216,109.709,50.083,108.695,50.18z"/>
<path fill="#DAEFEE" d="M120.613,49.747c-0.775,1.098-1.69,1.352-3.478,1.381c-1.569,0.025-1.781-0.664-3.368-1.297
	c1.304-0.615,2.562-1.339,3.58-1.388C118.366,48.395,120.591,48.523,120.613,49.747z"/>
<path fill="#8ECAEB" d="M17.491,55.61c2.649-0.503,5.507,1.261,4.876,4.016c-0.63,2.752-3.987,5.171-6.615,2.732
	C13.123,59.921,14.261,56.222,17.491,55.61z"/>
<path fill="#DAEFEE" d="M19.729,56.854c-1.185-1.282-4.428-0.543-3.923,3.538c0.078,0.643,0.384,0.704,0.629-0.188
	c0.173-0.626,0.703-1.039,1.604-1.395C18.729,58.537,21.398,58.663,19.729,56.854z"/>
<g>
	<path fill="#8ECAEB" d="M10.109,111.178c0.845,4.568,3.297-11.047-1.045-17.381c-1.95-2.854-5.614-3.625-7.221-1.479
		c-2.149,2.869,1.007,7.881,2.576,9.088C8.043,104.176,9.868,109.862,10.109,111.178z"/>
	<path fill="#DAEFEE" d="M2.979,93.282c1.604-1.132,5.104-1.257,6.55,5.426c0.486,2.246,0.377,1.925-0.693,0.267
		c-0.859-1.332-2.643-2.998-4.262-3.328C2.955,95.318,1.696,94.188,2.979,93.282z"/>
</g>
<path fill="#DAEFEE" d="M43.289,97.294c-1.125-1.608-4.374-2.913-8.003,2.883c-1.218,1.947-1.005,1.683,0.563,0.485
	c1.26-0.963,3.502-1.926,5.138-1.686C42.621,99.216,44.188,98.58,43.289,97.294z"/>
<g>
	<path fill="#8ECAEB" d="M15.898,119.163c2.837,0.442,5.073,3.229,3.459,5.765c-1.615,2.537-5.845,3.766-7.609,0.382
		C9.98,121.927,12.442,118.622,15.898,119.163z"/>
	<path fill="#DAEFEE" d="M16.352,120.542c-1.184-1.282-4.427-0.545-3.922,3.538c0.078,0.643,0.384,0.703,0.629-0.188
		c0.173-0.627,0.703-1.039,1.604-1.395C15.352,122.225,18.021,122.351,16.352,120.542z"/>
</g>
<g>
	<path fill="#8ECAEB" d="M49.992,33.727c2.839,0.442,5.072,3.23,3.458,5.767c-1.614,2.535-5.844,3.764-7.611,0.381
		C44.076,36.491,46.534,33.188,49.992,33.727z"/>
	<path fill="#DAEFEE" d="M50.626,35.179c-1.187-1.282-4.43-0.543-3.924,3.538c0.077,0.643,0.383,0.704,0.628-0.188
		c0.174-0.626,0.705-1.039,1.604-1.394C49.624,36.863,52.294,36.988,50.626,35.179z"/>
</g>
<g>
	<path fill="#8ECAEB" d="M98.551,25.249c2.256,0.351,4.032,2.569,2.747,4.587c-1.283,2.016-4.646,2.994-6.052,0.303
		C93.844,27.448,95.799,24.821,98.551,25.249z"/>
	<path fill="#DAEFEE" d="M99.053,26.405c-0.943-1.02-3.522-0.432-3.121,2.813c0.062,0.512,0.305,0.56,0.5-0.149
		c0.139-0.498,0.56-0.826,1.276-1.109C98.256,27.744,100.38,27.843,99.053,26.405z"/>
</g>
<g>
	<path fill="#8ECAEB" d="M81.618,1.968c2.256,0.351,4.032,2.569,2.748,4.587c-1.284,2.016-4.646,2.993-6.053,0.303
		C76.911,4.166,78.866,1.539,81.618,1.968z"/>
	<path fill="#DAEFEE" d="M82.12,3.123c-0.943-1.02-3.522-0.432-3.12,2.813c0.062,0.512,0.305,0.56,0.499-0.149
		c0.139-0.498,0.561-0.826,1.276-1.109C81.324,4.462,83.447,4.561,82.12,3.123z"/>
</g>
</svg>
