<?xml version="1.0" encoding="utf-8"?>
<!-- Generator: Adobe Illustrator 15.0.2, SVG Export Plug-In . SVG Version: 6.00 Build 0)  -->
<!DOCTYPE svg PUBLIC "-//W3C//DTD SVG 1.1//EN" "http://www.w3.org/Graphics/SVG/1.1/DTD/svg11.dtd">
<svg version="1.1" id="Layer_1" xmlns="http://www.w3.org/2000/svg" xmlns:xlink="http://www.w3.org/1999/xlink" x="0px" y="0px"
	 width="400px" height="225px" viewBox="0 0 400 225" enable-background="new 0 0 400 225" xml:space="preserve">
<path fill="#8ECAEB" d="M0.823,88.957c14.723,8.755,29.232,6.093,35.201-0.672c4.775,6.367,20.211,16.727,38.914,0.811
	c4.775,9.151,32.696,15.947,47.021,1.622c6.367,10.744,31.617,14.593,42.407,1.025c4.775,5.173,21.905,17.819,36.23-0.485
	c11.539,12.336,28.125,11.014,36.481,0.271c3.514,10.539,26.213,13.241,34.726,0.215c5.571,7.959,25.204,10.386,36.346-0.756
	c7.837,10.809,26.126,10.331,34.86-0.811c6.765,5.571,18.723,9.525,27.079-0.821c6.367,7.56,19.497,9.151,31.381-0.811
	l-0.397,48.546l-402.238,0.811L0.823,88.957z"/>
</svg>
