<?xml version="1.0" encoding="utf-8"?>
<!-- Generator: Adobe Illustrator 15.0.2, SVG Export Plug-In . SVG Version: 6.00 Build 0)  -->
<!DOCTYPE svg PUBLIC "-//W3C//DTD SVG 1.1//EN" "http://www.w3.org/Graphics/SVG/1.1/DTD/svg11.dtd">
<svg version="1.1" id="Layer_1" xmlns="http://www.w3.org/2000/svg" xmlns:xlink="http://www.w3.org/1999/xlink" x="0px" y="0px"
	 width="400px" height="225px" viewBox="0 0 400 225" enable-background="new 0 0 400 225" xml:space="preserve">
<path fill="#B5E2EC" d="M3.038,87.876c14.723,8.755,27.854,7.561,33.823,0.796c4.775,6.367,23.875,15.121,42.577-0.795
	c4.775,9.151,27.456,16.314,41.781,1.989c6.367,10.744,36.21,13.529,45.362,0.796c4.775,5.173,19.498,18.702,33.823,0.397
	c11.539,12.336,29.048,11.142,37.404,0.398c3.183,7.561,30.639,12.732,36.21-0.796c5.571,7.959,22.681,13.131,33.822,1.989
	c13.928,11.539,27.078,9.152,35.812-1.989c6.765,5.571,20.294,7.959,28.65-2.388c6.367,7.56,19.497,9.151,27.058,0l-0.397,48.546
	H1.049L3.038,87.876z"/>
</svg>
